<mxfile host="65bd71144e">
    <diagram id="1_5anNZWqj-V4xLO7_Jg" name="Shapes">
        <mxGraphModel dx="691" dy="523" grid="1" gridSize="10" guides="1" tooltips="1" connect="1" arrows="1" fold="1" page="1" pageScale="1" pageWidth="827" pageHeight="1169" math="0" shadow="0">
            <root>
                <mxCell id="0"/>
                <mxCell id="1" parent="0"/>
                <mxCell id="2" value="Shape" style="swimlane;fontStyle=3;align=center;verticalAlign=top;childLayout=stackLayout;horizontal=1;startSize=26;horizontalStack=0;resizeParent=1;resizeParentMax=0;resizeLast=0;collapsible=1;marginBottom=0;" parent="1" vertex="1">
                    <mxGeometry x="240" y="40" width="160" height="70" as="geometry"/>
                </mxCell>
                <mxCell id="4" value="" style="line;strokeWidth=1;fillColor=none;align=left;verticalAlign=middle;spacingTop=-1;spacingLeft=3;spacingRight=3;rotatable=0;labelPosition=right;points=[];portConstraint=eastwest;" parent="2" vertex="1">
                    <mxGeometry y="26" width="160" height="8" as="geometry"/>
                </mxCell>
                <mxCell id="5" value="+ area(): double" style="text;strokeColor=none;fillColor=none;align=left;verticalAlign=top;spacingLeft=4;spacingRight=4;overflow=hidden;rotatable=0;points=[[0,0.5],[1,0.5]];portConstraint=eastwest;" parent="2" vertex="1">
                    <mxGeometry y="34" width="160" height="36" as="geometry"/>
                </mxCell>
                <mxCell id="6" value="Rectangle" style="swimlane;fontStyle=1;align=center;verticalAlign=top;childLayout=stackLayout;horizontal=1;startSize=26;horizontalStack=0;resizeParent=1;resizeParentMax=0;resizeLast=0;collapsible=1;marginBottom=0;" parent="1" vertex="1">
                    <mxGeometry x="40" y="240" width="160" height="70" as="geometry"/>
                </mxCell>
                <mxCell id="7" value="" style="line;strokeWidth=1;fillColor=none;align=left;verticalAlign=middle;spacingTop=-1;spacingLeft=3;spacingRight=3;rotatable=0;labelPosition=right;points=[];portConstraint=eastwest;" parent="6" vertex="1">
                    <mxGeometry y="26" width="160" height="8" as="geometry"/>
                </mxCell>
                <mxCell id="8" value="+ area(): double" style="text;strokeColor=none;fillColor=none;align=left;verticalAlign=top;spacingLeft=4;spacingRight=4;overflow=hidden;rotatable=0;points=[[0,0.5],[1,0.5]];portConstraint=eastwest;" parent="6" vertex="1">
                    <mxGeometry y="34" width="160" height="36" as="geometry"/>
                </mxCell>
                <mxCell id="9" value="Circle" style="swimlane;fontStyle=1;align=center;verticalAlign=top;childLayout=stackLayout;horizontal=1;startSize=26;horizontalStack=0;resizeParent=1;resizeParentMax=0;resizeLast=0;collapsible=1;marginBottom=0;" parent="1" vertex="1">
                    <mxGeometry x="240" y="240" width="160" height="70" as="geometry"/>
                </mxCell>
                <mxCell id="10" value="" style="line;strokeWidth=1;fillColor=none;align=left;verticalAlign=middle;spacingTop=-1;spacingLeft=3;spacingRight=3;rotatable=0;labelPosition=right;points=[];portConstraint=eastwest;" parent="9" vertex="1">
                    <mxGeometry y="26" width="160" height="8" as="geometry"/>
                </mxCell>
                <mxCell id="11" value="+ area(): double" style="text;strokeColor=none;fillColor=none;align=left;verticalAlign=top;spacingLeft=4;spacingRight=4;overflow=hidden;rotatable=0;points=[[0,0.5],[1,0.5]];portConstraint=eastwest;" parent="9" vertex="1">
                    <mxGeometry y="34" width="160" height="36" as="geometry"/>
                </mxCell>
                <mxCell id="12" value="Triangle" style="swimlane;fontStyle=1;align=center;verticalAlign=top;childLayout=stackLayout;horizontal=1;startSize=26;horizontalStack=0;resizeParent=1;resizeParentMax=0;resizeLast=0;collapsible=1;marginBottom=0;" parent="1" vertex="1">
                    <mxGeometry x="440" y="240" width="160" height="70" as="geometry"/>
                </mxCell>
                <mxCell id="13" value="" style="line;strokeWidth=1;fillColor=none;align=left;verticalAlign=middle;spacingTop=-1;spacingLeft=3;spacingRight=3;rotatable=0;labelPosition=right;points=[];portConstraint=eastwest;" parent="12" vertex="1">
                    <mxGeometry y="26" width="160" height="8" as="geometry"/>
                </mxCell>
                <mxCell id="14" value="+ area(): double" style="text;strokeColor=none;fillColor=none;align=left;verticalAlign=top;spacingLeft=4;spacingRight=4;overflow=hidden;rotatable=0;points=[[0,0.5],[1,0.5]];portConstraint=eastwest;" parent="12" vertex="1">
                    <mxGeometry y="34" width="160" height="36" as="geometry"/>
                </mxCell>
                <mxCell id="15" value="Extends" style="endArrow=block;endSize=16;endFill=0;html=1;exitX=0.5;exitY=0;exitDx=0;exitDy=0;" parent="1" source="6" edge="1">
                    <mxGeometry width="160" relative="1" as="geometry">
                        <mxPoint x="240" y="170" as="sourcePoint"/>
                        <mxPoint x="290" y="113" as="targetPoint"/>
                    </mxGeometry>
                </mxCell>
                <mxCell id="16" value="Extends" style="endArrow=block;endSize=16;endFill=0;html=1;exitX=0.5;exitY=0;exitDx=0;exitDy=0;" parent="1" source="9" edge="1">
                    <mxGeometry width="160" relative="1" as="geometry">
                        <mxPoint x="130" y="250" as="sourcePoint"/>
                        <mxPoint x="321" y="113" as="targetPoint"/>
                    </mxGeometry>
                </mxCell>
                <mxCell id="17" value="Extends" style="endArrow=block;endSize=16;endFill=0;html=1;exitX=0.5;exitY=0;exitDx=0;exitDy=0;" parent="1" source="12" target="5" edge="1">
                    <mxGeometry width="160" relative="1" as="geometry">
                        <mxPoint x="330" y="250" as="sourcePoint"/>
                        <mxPoint x="320" y="113" as="targetPoint"/>
                    </mxGeometry>
                </mxCell>
                <mxCell id="18" value="&lt;table style=&quot;box-sizing: border-box; border-spacing: 0px; border-collapse: separate; width: 1837px; tab-size: 8; color: rgb(31, 35, 40); font-family: -apple-system, BlinkMacSystemFont, &amp;quot;Segoe UI&amp;quot;, &amp;quot;Noto Sans&amp;quot;, Helvetica, Arial, sans-serif, &amp;quot;Apple Color Emoji&amp;quot;, &amp;quot;Segoe UI Emoji&amp;quot;; font-size: 14px; font-style: normal; font-variant-ligatures: normal; font-variant-caps: normal; font-weight: 400; letter-spacing: normal; orphans: 2; text-align: start; text-transform: none; widows: 2; word-spacing: 0px; -webkit-text-stroke-width: 0px; background-color: rgb(255, 255, 255); text-decoration-thickness: initial; text-decoration-style: initial; text-decoration-color: initial;&quot; data-paste-markdown-skip=&quot;&quot; data-diff-anchor=&quot;diff-379f90ddc8dc13688fea867883699266f7e3aa4d1fbb3ea4ac97af1c7d1c66b6&quot; data-tab-size=&quot;8&quot; class=&quot;diff-table js-diff-table tab-size&quot;&gt;&lt;tbody style=&quot;box-sizing: border-box;&quot;&gt;&lt;tr style=&quot;box-sizing: border-box;&quot; class=&quot;show-top-border&quot; data-hunk=&quot;1f829faa3dfd9437d9add38fa4ba800ac3f3bafc46fed3e3f6d62053028f5170&quot;&gt;&lt;td style=&quot;box-sizing: border-box; padding: 0px 10px 0px 22px; position: relative; line-height: 20px; vertical-align: top;&quot; class=&quot;blob-code blob-code-context js-file-line&quot;&gt;&lt;span style=&quot;box-sizing: border-box; display: table-cell; overflow: visible; font-family: ui-monospace, SFMono-Regular, &amp;quot;SF Mono&amp;quot;, Menlo, Consolas, &amp;quot;Liberation Mono&amp;quot;, monospace; font-size: 12px; color: var(--color-fg-default); overflow-wrap: anywhere;&quot; data-code-marker=&quot;&quot; class=&quot;blob-code-inner blob-code-marker js-code-nav-pass&quot;&gt;&lt;/span&gt;&lt;/td&gt;&lt;/tr&gt;&lt;tr style=&quot;box-sizing: border-box;&quot; class=&quot;show-top-border&quot; data-hunk=&quot;1f829faa3dfd9437d9add38fa4ba800ac3f3bafc46fed3e3f6d62053028f5170&quot;&gt;&lt;td style=&quot;box-sizing: border-box; padding: 0px 10px 0px 22px; position: relative; line-height: 20px; vertical-align: top;&quot; class=&quot;blob-code blob-code-context js-file-line&quot;&gt;&lt;span style=&quot;box-sizing: border-box; display: table-cell; overflow: visible; font-family: ui-monospace, SFMono-Regular, &amp;quot;SF Mono&amp;quot;, Menlo, Consolas, &amp;quot;Liberation Mono&amp;quot;, monospace; font-size: 12px; color: var(--color-fg-default); overflow-wrap: anywhere;&quot; data-code-marker=&quot;&quot; class=&quot;blob-code-inner blob-code-marker js-code-nav-pass&quot;&gt;&lt;br class=&quot;Apple-interchange-newline&quot;&gt;    &lt;span style=&quot;box-sizing: border-box; color: var(--color-prettylights-syntax-comment);&quot; class=&quot;pl-c&quot;&gt;// 1.Iteration:  ggf. 1000x Ã¼berladen ... &lt;/span&gt;&lt;/span&gt;&lt;/td&gt;&lt;/tr&gt;&lt;tr style=&quot;box-sizing: border-box;&quot; class=&quot;show-top-border&quot; data-hunk=&quot;1f829faa3dfd9437d9add38fa4ba800ac3f3bafc46fed3e3f6d62053028f5170&quot;&gt;&lt;td style=&quot;box-sizing: border-box; padding: 0px 10px; position: relative; width: 50px; min-width: 50px; font-family: ui-monospace, SFMono-Regular, &amp;quot;SF Mono&amp;quot;, Menlo, Consolas, &amp;quot;Liberation Mono&amp;quot;, monospace; font-size: 12px; line-height: 20px; color: var(--color-diff-blob-addition-num-text); text-align: right; vertical-align: top; cursor: pointer; user-select: none; background-color: var(--color-diff-blob-addition-num-bg); border-color: var(--color-success-emphasis);&quot; class=&quot;blob-num blob-num-addition empty-cell&quot;&gt;&lt;/td&gt;&lt;td style=&quot;box-sizing: border-box; padding: 0px 10px; position: relative; width: 50px; min-width: 50px; font-family: ui-monospace, SFMono-Regular, &amp;quot;SF Mono&amp;quot;, Menlo, Consolas, &amp;quot;Liberation Mono&amp;quot;, monospace; font-size: 12px; line-height: 20px; color: var(--color-diff-blob-addition-num-text); text-align: right; vertical-align: top; cursor: pointer; user-select: none; background-color: var(--color-diff-blob-addition-num-bg); border-color: var(--color-success-emphasis);&quot; class=&quot;blob-num blob-num-addition js-linkable-line-number js-code-nav-line-number js-blob-rnum&quot; data-line-number=&quot;26&quot; id=&quot;diff-379f90ddc8dc13688fea867883699266f7e3aa4d1fbb3ea4ac97af1c7d1c66b6R26&quot;&gt;&lt;/td&gt;&lt;td style=&quot;box-sizing: border-box; padding: 0px 10px 0px 22px; position: relative; line-height: 20px; vertical-align: top; background-color: var(--color-diff-blob-addition-line-bg); outline: transparent dotted 1px;&quot; class=&quot;blob-code blob-code-addition js-file-line&quot;&gt;&lt;button style=&quot;box-sizing: border-box; font-style: inherit; font-variant: inherit; font-weight: inherit; font-stretch: inherit; font-size: inherit; line-height: 21px; font-family: inherit; font-optical-sizing: inherit; font-kerning: inherit; font-feature-settings: inherit; font-variation-settings: inherit; margin: -2px -10px -2px -32px; overflow: visible; text-transform: none; appearance: button; cursor: pointer; border-radius: 6px; display: inline-block; padding: 0px; color: var(--color-fg-on-emphasis); text-decoration: none; user-select: none; background-color: var(--color-accent-emphasis); border: 0px; position: relative; z-index: 1; float: left; width: 22px; height: 22px; text-align: center; text-indent: 0px; box-shadow: var(--color-shadow-medium); opacity: 0; transition: transform 0.1s ease-in-out 0s; transform: scale(0.8, 0.8);&quot; class=&quot;add-line-comment js-add-line-comment js-add-single-line-comment btn-link&quot; data-view-component=&quot;true&quot; type=&quot;button&quot; aria-label=&quot;Add line comment&quot; data-original-line=&quot;+    // private static double areaDiff(Circle c, Rectangle r) {&quot; data-line=&quot;26&quot; data-side=&quot;right&quot; data-position=&quot;10&quot; data-anchor=&quot;diff-379f90ddc8dc13688fea867883699266f7e3aa4d1fbb3ea4ac97af1c7d1c66b6&quot; data-path=&quot;com/cc/java/App.java&quot;&gt;&lt;svg class=&quot;octicon octicon-plus&quot; data-view-component=&quot;true&quot; width=&quot;16&quot; version=&quot;1.1&quot; viewBox=&quot;0 0 16 16&quot; height=&quot;16&quot; aria-hidden=&quot;true&quot;&gt;&lt;path d=&quot;M7.75 2a.75.75 0 0 1 .75.75V7h4.25a.75.75 0 0 1 0 1.5H8.5v4.25a.75.75 0 0 1-1.5 0V8.5H2.75a.75.75 0 0 1 0-1.5H7V2.75A.75.75 0 0 1 7.75 2Z&quot;&gt;&lt;/path&gt;&lt;/svg&gt;&lt;/button&gt;&lt;span style=&quot;box-sizing: border-box; display: table-cell; overflow: visible; font-family: ui-monospace, SFMono-Regular, &amp;quot;SF Mono&amp;quot;, Menlo, Consolas, &amp;quot;Liberation Mono&amp;quot;, monospace; font-size: 12px; color: var(--color-fg-default); overflow-wrap: anywhere;&quot; data-code-marker=&quot;+&quot; class=&quot;blob-code-inner blob-code-marker js-code-nav-pass&quot;&gt;    &lt;span style=&quot;box-sizing: border-box; color: var(--color-prettylights-syntax-comment);&quot; class=&quot;pl-c&quot;&gt;// private static double areaDiff(Circle c, Rectangle r) {&lt;/span&gt;&lt;/span&gt;&lt;/td&gt;&lt;/tr&gt;&lt;tr style=&quot;box-sizing: border-box;&quot; class=&quot;show-top-border&quot; data-hunk=&quot;1f829faa3dfd9437d9add38fa4ba800ac3f3bafc46fed3e3f6d62053028f5170&quot;&gt;&lt;td style=&quot;box-sizing: border-box; padding: 0px 10px; position: relative; width: 50px; min-width: 50px; font-family: ui-monospace, SFMono-Regular, &amp;quot;SF Mono&amp;quot;, Menlo, Consolas, &amp;quot;Liberation Mono&amp;quot;, monospace; font-size: 12px; line-height: 20px; color: var(--color-diff-blob-addition-num-text); text-align: right; vertical-align: top; cursor: pointer; user-select: none; background-color: var(--color-diff-blob-addition-num-bg); border-color: var(--color-success-emphasis);&quot; class=&quot;blob-num blob-num-addition empty-cell&quot;&gt;&lt;/td&gt;&lt;td style=&quot;box-sizing: border-box; padding: 0px 10px; position: relative; width: 50px; min-width: 50px; font-family: ui-monospace, SFMono-Regular, &amp;quot;SF Mono&amp;quot;, Menlo, Consolas, &amp;quot;Liberation Mono&amp;quot;, monospace; font-size: 12px; line-height: 20px; color: var(--color-diff-blob-addition-num-text); text-align: right; vertical-align: top; cursor: pointer; user-select: none; background-color: var(--color-diff-blob-addition-num-bg); border-color: var(--color-success-emphasis);&quot; class=&quot;blob-num blob-num-addition js-linkable-line-number js-code-nav-line-number js-blob-rnum&quot; data-line-number=&quot;27&quot; id=&quot;diff-379f90ddc8dc13688fea867883699266f7e3aa4d1fbb3ea4ac97af1c7d1c66b6R27&quot;&gt;&lt;/td&gt;&lt;td style=&quot;box-sizing: border-box; padding: 0px 10px 0px 22px; position: relative; line-height: 20px; vertical-align: top; background-color: var(--color-diff-blob-addition-line-bg); outline: transparent dotted 1px;&quot; class=&quot;blob-code blob-code-addition js-file-line&quot;&gt;&lt;button style=&quot;box-sizing: border-box; font-style: inherit; font-variant: inherit; font-weight: inherit; font-stretch: inherit; font-size: inherit; line-height: 21px; font-family: inherit; font-optical-sizing: inherit; font-kerning: inherit; font-feature-settings: inherit; font-variation-settings: inherit; margin: -2px -10px -2px -32px; overflow: visible; text-transform: none; appearance: button; cursor: pointer; border-radius: 6px; display: inline-block; padding: 0px; color: var(--color-fg-on-emphasis); text-decoration: none; user-select: none; background-color: var(--color-accent-emphasis); border: 0px; position: relative; z-index: 1; float: left; width: 22px; height: 22px; text-align: center; text-indent: 0px; box-shadow: var(--color-shadow-medium); opacity: 0; transition: transform 0.1s ease-in-out 0s; transform: scale(0.8, 0.8);&quot; class=&quot;add-line-comment js-add-line-comment js-add-single-line-comment btn-link&quot; data-view-component=&quot;true&quot; type=&quot;button&quot; aria-label=&quot;Add line comment&quot; data-original-line=&quot;+    //     return c.area() - r.area();&quot; data-line=&quot;27&quot; data-side=&quot;right&quot; data-position=&quot;11&quot; data-anchor=&quot;diff-379f90ddc8dc13688fea867883699266f7e3aa4d1fbb3ea4ac97af1c7d1c66b6&quot; data-path=&quot;com/cc/java/App.java&quot;&gt;&lt;svg class=&quot;octicon octicon-plus&quot; data-view-component=&quot;true&quot; width=&quot;16&quot; version=&quot;1.1&quot; viewBox=&quot;0 0 16 16&quot; height=&quot;16&quot; aria-hidden=&quot;true&quot;&gt;&lt;path d=&quot;M7.75 2a.75.75 0 0 1 .75.75V7h4.25a.75.75 0 0 1 0 1.5H8.5v4.25a.75.75 0 0 1-1.5 0V8.5H2.75a.75.75 0 0 1 0-1.5H7V2.75A.75.75 0 0 1 7.75 2Z&quot;&gt;&lt;/path&gt;&lt;/svg&gt;&lt;/button&gt;&lt;span style=&quot;box-sizing: border-box; display: table-cell; overflow: visible; font-family: ui-monospace, SFMono-Regular, &amp;quot;SF Mono&amp;quot;, Menlo, Consolas, &amp;quot;Liberation Mono&amp;quot;, monospace; font-size: 12px; color: var(--color-fg-default); overflow-wrap: anywhere;&quot; data-code-marker=&quot;+&quot; class=&quot;blob-code-inner blob-code-marker js-code-nav-pass&quot;&gt;    &lt;span style=&quot;box-sizing: border-box; color: var(--color-prettylights-syntax-comment);&quot; class=&quot;pl-c&quot;&gt;//     return c.area() - r.area();&lt;/span&gt;&lt;/span&gt;&lt;/td&gt;&lt;/tr&gt;&lt;tr style=&quot;box-sizing: border-box;&quot; class=&quot;show-top-border&quot; data-hunk=&quot;1f829faa3dfd9437d9add38fa4ba800ac3f3bafc46fed3e3f6d62053028f5170&quot;&gt;&lt;td style=&quot;box-sizing: border-box; padding: 0px 10px; position: relative; width: 50px; min-width: 50px; font-family: ui-monospace, SFMono-Regular, &amp;quot;SF Mono&amp;quot;, Menlo, Consolas, &amp;quot;Liberation Mono&amp;quot;, monospace; font-size: 12px; line-height: 20px; color: var(--color-diff-blob-addition-num-text); text-align: right; vertical-align: top; cursor: pointer; user-select: none; background-color: var(--color-diff-blob-addition-num-bg); border-color: var(--color-success-emphasis);&quot; class=&quot;blob-num blob-num-addition empty-cell&quot;&gt;&lt;/td&gt;&lt;td style=&quot;box-sizing: border-box; padding: 0px 10px; position: relative; width: 50px; min-width: 50px; font-family: ui-monospace, SFMono-Regular, &amp;quot;SF Mono&amp;quot;, Menlo, Consolas, &amp;quot;Liberation Mono&amp;quot;, monospace; font-size: 12px; line-height: 20px; color: var(--color-diff-blob-addition-num-text); text-align: right; vertical-align: top; cursor: pointer; user-select: none; background-color: var(--color-diff-blob-addition-num-bg); border-color: var(--color-success-emphasis);&quot; class=&quot;blob-num blob-num-addition js-linkable-line-number js-code-nav-line-number js-blob-rnum&quot; data-line-number=&quot;28&quot; id=&quot;diff-379f90ddc8dc13688fea867883699266f7e3aa4d1fbb3ea4ac97af1c7d1c66b6R28&quot;&gt;&lt;/td&gt;&lt;td style=&quot;box-sizing: border-box; padding: 0px 10px 0px 22px; position: relative; line-height: 20px; vertical-align: top; background-color: var(--color-diff-blob-addition-line-bg); outline: transparent dotted 1px;&quot; class=&quot;blob-code blob-code-addition js-file-line&quot;&gt;&lt;button style=&quot;box-sizing: border-box; font-style: inherit; font-variant: inherit; font-weight: inherit; font-stretch: inherit; font-size: inherit; line-height: 21px; font-family: inherit; font-optical-sizing: inherit; font-kerning: inherit; font-feature-settings: inherit; font-variation-settings: inherit; margin: -2px -10px -2px -32px; overflow: visible; text-transform: none; appearance: button; cursor: pointer; border-radius: 6px; display: inline-block; padding: 0px; color: var(--color-fg-on-emphasis); text-decoration: none; user-select: none; background-color: var(--color-accent-emphasis); border: 0px; position: relative; z-index: 1; float: left; width: 22px; height: 22px; text-align: center; text-indent: 0px; box-shadow: var(--color-shadow-medium); opacity: 0; transition: transform 0.1s ease-in-out 0s; transform: scale(0.8, 0.8);&quot; class=&quot;add-line-comment js-add-line-comment js-add-single-line-comment btn-link&quot; data-view-component=&quot;true&quot; type=&quot;button&quot; aria-label=&quot;Add line comment&quot; data-original-line=&quot;+    // }&quot; data-line=&quot;28&quot; data-side=&quot;right&quot; data-position=&quot;12&quot; data-anchor=&quot;diff-379f90ddc8dc13688fea867883699266f7e3aa4d1fbb3ea4ac97af1c7d1c66b6&quot; data-path=&quot;com/cc/java/App.java&quot;&gt;&lt;svg class=&quot;octicon octicon-plus&quot; data-view-component=&quot;true&quot; width=&quot;16&quot; version=&quot;1.1&quot; viewBox=&quot;0 0 16 16&quot; height=&quot;16&quot; aria-hidden=&quot;true&quot;&gt;&lt;path d=&quot;M7.75 2a.75.75 0 0 1 .75.75V7h4.25a.75.75 0 0 1 0 1.5H8.5v4.25a.75.75 0 0 1-1.5 0V8.5H2.75a.75.75 0 0 1 0-1.5H7V2.75A.75.75 0 0 1 7.75 2Z&quot;&gt;&lt;/path&gt;&lt;/svg&gt;&lt;/button&gt;&lt;span style=&quot;box-sizing: border-box; display: table-cell; overflow: visible; font-family: ui-monospace, SFMono-Regular, &amp;quot;SF Mono&amp;quot;, Menlo, Consolas, &amp;quot;Liberation Mono&amp;quot;, monospace; font-size: 12px; color: var(--color-fg-default); overflow-wrap: anywhere;&quot; data-code-marker=&quot;+&quot; class=&quot;blob-code-inner blob-code-marker js-code-nav-pass&quot;&gt;    &lt;span style=&quot;box-sizing: border-box; color: var(--color-prettylights-syntax-comment);&quot; class=&quot;pl-c&quot;&gt;// }&lt;/span&gt;&lt;/span&gt;&lt;/td&gt;&lt;/tr&gt;&lt;tr style=&quot;box-sizing: border-box;&quot; class=&quot;show-top-border&quot; data-hunk=&quot;1f829faa3dfd9437d9add38fa4ba800ac3f3bafc46fed3e3f6d62053028f5170&quot;&gt;&lt;td style=&quot;box-sizing: border-box; padding: 0px 10px; position: relative; width: 50px; min-width: 50px; font-family: ui-monospace, SFMono-Regular, &amp;quot;SF Mono&amp;quot;, Menlo, Consolas, &amp;quot;Liberation Mono&amp;quot;, monospace; font-size: 12px; line-height: 20px; color: var(--color-fg-subtle); text-align: right; vertical-align: top; cursor: pointer; user-select: none;&quot; class=&quot;blob-num blob-num-context js-linkable-line-number&quot; data-line-number=&quot;23&quot; id=&quot;diff-379f90ddc8dc13688fea867883699266f7e3aa4d1fbb3ea4ac97af1c7d1c66b6L23&quot;&gt;&lt;/td&gt;&lt;td style=&quot;box-sizing: border-box; padding: 0px 10px; position: relative; width: 50px; min-width: 50px; font-family: ui-monospace, SFMono-Regular, &amp;quot;SF Mono&amp;quot;, Menlo, Consolas, &amp;quot;Liberation Mono&amp;quot;, monospace; font-size: 12px; line-height: 20px; color: var(--color-fg-subtle); text-align: right; vertical-align: top; cursor: pointer; user-select: none;&quot; class=&quot;blob-num blob-num-context js-linkable-line-number js-code-nav-line-number js-blob-rnum&quot; data-line-number=&quot;29&quot; id=&quot;diff-379f90ddc8dc13688fea867883699266f7e3aa4d1fbb3ea4ac97af1c7d1c66b6R29&quot;&gt;&lt;/td&gt;&lt;td style=&quot;box-sizing: border-box; padding: 0px 10px 0px 22px; position: relative; line-height: 20px; vertical-align: top;&quot; class=&quot;blob-code blob-code-context js-file-line&quot;&gt;&lt;button style=&quot;box-sizing: border-box; font-style: inherit; font-variant: inherit; font-weight: inherit; font-stretch: inherit; font-size: inherit; line-height: 21px; font-family: inherit; font-optical-sizing: inherit; font-kerning: inherit; font-feature-settings: inherit; font-variation-settings: inherit; margin: -2px -10px -2px -32px; overflow: visible; text-transform: none; appearance: button; cursor: pointer; border-radius: 6px; display: inline-block; padding: 0px; color: var(--color-fg-on-emphasis); text-decoration: none; user-select: none; background-color: var(--color-accent-emphasis); border: 0px; position: relative; z-index: 1; float: left; width: 22px; height: 22px; text-align: center; text-indent: 0px; box-shadow: var(--color-shadow-medium); opacity: 0; transition: transform 0.1s ease-in-out 0s; transform: scale(0.8, 0.8);&quot; class=&quot;add-line-comment js-add-line-comment js-add-single-line-comment btn-link&quot; data-view-component=&quot;true&quot; type=&quot;button&quot; aria-label=&quot;Add line comment&quot; data-original-line=&quot;&quot; data-line=&quot;29&quot; data-side=&quot;right&quot; data-position=&quot;13&quot; data-anchor=&quot;diff-379f90ddc8dc13688fea867883699266f7e3aa4d1fbb3ea4ac97af1c7d1c66b6&quot; data-path=&quot;com/cc/java/App.java&quot;&gt;&lt;svg class=&quot;octicon octicon-plus&quot; data-view-component=&quot;true&quot; width=&quot;16&quot; version=&quot;1.1&quot; viewBox=&quot;0 0 16 16&quot; height=&quot;16&quot; aria-hidden=&quot;true&quot;&gt;&lt;path d=&quot;M7.75 2a.75.75 0 0 1 .75.75V7h4.25a.75.75 0 0 1 0 1.5H8.5v4.25a.75.75 0 0 1-1.5 0V8.5H2.75a.75.75 0 0 1 0-1.5H7V2.75A.75.75 0 0 1 7.75 2Z&quot;&gt;&lt;/path&gt;&lt;/svg&gt;&lt;/button&gt;&lt;span style=&quot;box-sizing: border-box; display: table-cell; overflow: visible; font-family: ui-monospace, SFMono-Regular, &amp;quot;SF Mono&amp;quot;, Menlo, Consolas, &amp;quot;Liberation Mono&amp;quot;, monospace; font-size: 12px; color: var(--color-fg-default); overflow-wrap: anywhere;&quot; data-code-marker=&quot;&quot; class=&quot;blob-code-inner blob-code-marker js-code-nav-pass&quot;&gt;&lt;br style=&quot;box-sizing: border-box;&quot;&gt;&lt;/span&gt;&lt;/td&gt;&lt;/tr&gt;&lt;tr style=&quot;box-sizing: border-box;&quot; class=&quot;show-top-border&quot; data-hunk=&quot;1f829faa3dfd9437d9add38fa4ba800ac3f3bafc46fed3e3f6d62053028f5170&quot;&gt;&lt;td style=&quot;box-sizing: border-box; padding: 0px 10px; position: relative; width: 50px; min-width: 50px; font-family: ui-monospace, SFMono-Regular, &amp;quot;SF Mono&amp;quot;, Menlo, Consolas, &amp;quot;Liberation Mono&amp;quot;, monospace; font-size: 12px; line-height: 20px; color: var(--color-diff-blob-deletion-num-text); text-align: right; vertical-align: top; cursor: pointer; user-select: none; background-color: var(--color-diff-blob-deletion-num-bg); border-color: var(--color-danger-emphasis);&quot; class=&quot;blob-num blob-num-deletion js-linkable-line-number&quot; data-line-number=&quot;24&quot; id=&quot;diff-379f90ddc8dc13688fea867883699266f7e3aa4d1fbb3ea4ac97af1c7d1c66b6L24&quot;&gt;&lt;/td&gt;&lt;td style=&quot;box-sizing: border-box; padding: 0px 10px; position: relative; width: 50px; min-width: 50px; font-family: ui-monospace, SFMono-Regular, &amp;quot;SF Mono&amp;quot;, Menlo, Consolas, &amp;quot;Liberation Mono&amp;quot;, monospace; font-size: 12px; line-height: 20px; color: var(--color-diff-blob-deletion-num-text); text-align: right; vertical-align: top; cursor: pointer; user-select: none; background-color: var(--color-diff-blob-deletion-num-bg); border-color: var(--color-danger-emphasis);&quot; class=&quot;blob-num blob-num-deletion empty-cell&quot;&gt;&lt;/td&gt;&lt;td style=&quot;box-sizing: border-box; padding: 0px 10px 0px 22px; position: relative; line-height: 20px; vertical-align: top; background-color: var(--color-diff-blob-deletion-line-bg); outline: transparent dashed 1px;&quot; class=&quot;blob-code blob-code-deletion js-file-line&quot;&gt;&lt;button style=&quot;box-sizing: border-box; font-style: inherit; font-variant: inherit; font-weight: inherit; font-stretch: inherit; font-size: inherit; line-height: 21px; font-family: inherit; font-optical-sizing: inherit; font-kerning: inherit; font-feature-settings: inherit; font-variation-settings: inherit; margin: -2px -10px -2px -32px; overflow: visible; text-transform: none; appearance: button; cursor: pointer; border-radius: 6px; display: inline-block; padding: 0px; color: var(--color-fg-on-emphasis); text-decoration: none; user-select: none; background-color: var(--color-accent-emphasis); border: 0px; position: relative; z-index: 1; float: left; width: 22px; height: 22px; text-align: center; text-indent: 0px; box-shadow: var(--color-shadow-medium); opacity: 0; transition: transform 0.1s ease-in-out 0s; transform: scale(0.8, 0.8);&quot; class=&quot;add-line-comment js-add-line-comment js-add-single-line-comment btn-link&quot; data-view-component=&quot;true&quot; type=&quot;button&quot; aria-label=&quot;Add line comment&quot; data-original-line=&quot;-    private static double areaDiff(Circle c, Rectangle r) {&quot; data-line=&quot;24&quot; data-side=&quot;left&quot; data-position=&quot;14&quot; data-anchor=&quot;diff-379f90ddc8dc13688fea867883699266f7e3aa4d1fbb3ea4ac97af1c7d1c66b6&quot; data-path=&quot;com/cc/java/App.java&quot;&gt;&lt;svg class=&quot;octicon octicon-plus&quot; data-view-component=&quot;true&quot; width=&quot;16&quot; version=&quot;1.1&quot; viewBox=&quot;0 0 16 16&quot; height=&quot;16&quot; aria-hidden=&quot;true&quot;&gt;&lt;path d=&quot;M7.75 2a.75.75 0 0 1 .75.75V7h4.25a.75.75 0 0 1 0 1.5H8.5v4.25a.75.75 0 0 1-1.5 0V8.5H2.75a.75.75 0 0 1 0-1.5H7V2.75A.75.75 0 0 1 7.75 2Z&quot;&gt;&lt;/path&gt;&lt;/svg&gt;&lt;/button&gt;&lt;span style=&quot;box-sizing: border-box; display: table-cell; overflow: visible; font-family: ui-monospace, SFMono-Regular, &amp;quot;SF Mono&amp;quot;, Menlo, Consolas, &amp;quot;Liberation Mono&amp;quot;, monospace; font-size: 12px; color: var(--color-fg-default); overflow-wrap: anywhere;&quot; data-code-marker=&quot;-&quot; class=&quot;blob-code-inner blob-code-marker js-code-nav-pass js-skip-tagsearch&quot;&gt;    &lt;span style=&quot;box-sizing: border-box; color: var(--color-prettylights-syntax-keyword);&quot; class=&quot;pl-k&quot;&gt;private&lt;/span&gt; &lt;span style=&quot;box-sizing: border-box; color: var(--color-prettylights-syntax-keyword);&quot; class=&quot;pl-k&quot;&gt;static&lt;/span&gt; &lt;span style=&quot;box-sizing: border-box; color: var(--color-prettylights-syntax-storage-modifier-import);&quot; class=&quot;pl-smi&quot;&gt;double&lt;/span&gt; &lt;span style=&quot;box-sizing: border-box; color: var(--color-prettylights-syntax-entity);&quot; class=&quot;pl-en&quot;&gt;areaDiff&lt;/span&gt;(&lt;span style=&quot;box-sizing: border-box; color: var(--color-prettylights-syntax-storage-modifier-import);&quot; class=&quot;pl-smi&quot;&gt;Circle&lt;/span&gt; &lt;span style=&quot;box-sizing: border-box;&quot; class=&quot;pl-s1&quot;&gt;c&lt;/span&gt;, &lt;span style=&quot;box-sizing: border-box; color: var(--color-prettylights-syntax-storage-modifier-import);&quot; class=&quot;pl-smi&quot;&gt;Rectangle&lt;/span&gt; &lt;span style=&quot;box-sizing: border-box;&quot; class=&quot;pl-s1&quot;&gt;r&lt;/span&gt;) {&lt;/span&gt;&lt;/td&gt;&lt;/tr&gt;&lt;tr style=&quot;box-sizing: border-box;&quot; class=&quot;show-top-border&quot; data-hunk=&quot;1f829faa3dfd9437d9add38fa4ba800ac3f3bafc46fed3e3f6d62053028f5170&quot;&gt;&lt;td style=&quot;box-sizing: border-box; padding: 0px 10px; position: relative; width: 50px; min-width: 50px; font-family: ui-monospace, SFMono-Regular, &amp;quot;SF Mono&amp;quot;, Menlo, Consolas, &amp;quot;Liberation Mono&amp;quot;, monospace; font-size: 12px; line-height: 20px; color: var(--color-diff-blob-deletion-num-text); text-align: right; vertical-align: top; cursor: pointer; user-select: none; background-color: var(--color-diff-blob-deletion-num-bg); border-color: var(--color-danger-emphasis);&quot; class=&quot;blob-num blob-num-deletion js-linkable-line-number&quot; data-line-number=&quot;25&quot; id=&quot;diff-379f90ddc8dc13688fea867883699266f7e3aa4d1fbb3ea4ac97af1c7d1c66b6L25&quot;&gt;&lt;/td&gt;&lt;td style=&quot;box-sizing: border-box; padding: 0px 10px; position: relative; width: 50px; min-width: 50px; font-family: ui-monospace, SFMono-Regular, &amp;quot;SF Mono&amp;quot;, Menlo, Consolas, &amp;quot;Liberation Mono&amp;quot;, monospace; font-size: 12px; line-height: 20px; color: var(--color-diff-blob-deletion-num-text); text-align: right; vertical-align: top; cursor: pointer; user-select: none; background-color: var(--color-diff-blob-deletion-num-bg); border-color: var(--color-danger-emphasis);&quot; class=&quot;blob-num blob-num-deletion empty-cell&quot;&gt;&lt;/td&gt;&lt;td style=&quot;box-sizing: border-box; padding: 0px 10px 0px 22px; position: relative; line-height: 20px; vertical-align: top; background-color: var(--color-diff-blob-deletion-line-bg); outline: transparent dashed 1px;&quot; class=&quot;blob-code blob-code-deletion js-file-line&quot;&gt;&lt;button style=&quot;box-sizing: border-box; font-style: inherit; font-variant: inherit; font-weight: inherit; font-stretch: inherit; font-size: inherit; line-height: 21px; font-family: inherit; font-optical-sizing: inherit; font-kerning: inherit; font-feature-settings: inherit; font-variation-settings: inherit; margin: -2px -10px -2px -32px; overflow: visible; text-transform: none; appearance: button; cursor: pointer; border-radius: 6px; display: inline-block; padding: 0px; color: var(--color-fg-on-emphasis); text-decoration: none; user-select: none; background-color: var(--color-accent-emphasis); border: 0px; position: relative; z-index: 1; float: left; width: 22px; height: 22px; text-align: center; text-indent: 0px; box-shadow: var(--color-shadow-medium); opacity: 0; transition: transform 0.1s ease-in-out 0s; transform: scale(0.8, 0.8);&quot; class=&quot;add-line-comment js-add-line-comment js-add-single-line-comment btn-link&quot; data-view-component=&quot;true&quot; type=&quot;button&quot; aria-label=&quot;Add line comment&quot; data-original-line=&quot;-        return c.area() - r.area();&quot; data-line=&quot;25&quot; data-side=&quot;left&quot; data-position=&quot;15&quot; data-anchor=&quot;diff-379f90ddc8dc13688fea867883699266f7e3aa4d1fbb3ea4ac97af1c7d1c66b6&quot; data-path=&quot;com/cc/java/App.java&quot;&gt;&lt;svg class=&quot;octicon octicon-plus&quot; data-view-component=&quot;true&quot; width=&quot;16&quot; version=&quot;1.1&quot; viewBox=&quot;0 0 16 16&quot; height=&quot;16&quot; aria-hidden=&quot;true&quot;&gt;&lt;path d=&quot;M7.75 2a.75.75 0 0 1 .75.75V7h4.25a.75.75 0 0 1 0 1.5H8.5v4.25a.75.75 0 0 1-1.5 0V8.5H2.75a.75.75 0 0 1 0-1.5H7V2.75A.75.75 0 0 1 7.75 2Z&quot;&gt;&lt;/path&gt;&lt;/svg&gt;&lt;/button&gt;&lt;span style=&quot;box-sizing: border-box; display: table-cell; overflow: visible; font-family: ui-monospace, SFMono-Regular, &amp;quot;SF Mono&amp;quot;, Menlo, Consolas, &amp;quot;Liberation Mono&amp;quot;, monospace; font-size: 12px; color: var(--color-fg-default); overflow-wrap: anywhere;&quot; data-code-marker=&quot;-&quot; class=&quot;blob-code-inner blob-code-marker js-code-nav-pass js-skip-tagsearch&quot;&gt;        &lt;span style=&quot;box-sizing: border-box; color: var(--color-prettylights-syntax-keyword);&quot; class=&quot;pl-k&quot;&gt;return&lt;/span&gt; &lt;span style=&quot;box-sizing: border-box;&quot; class=&quot;pl-s1&quot;&gt;c&lt;/span&gt;.&lt;span style=&quot;box-sizing: border-box; color: var(--color-prettylights-syntax-entity);&quot; class=&quot;pl-en&quot;&gt;area&lt;/span&gt;() - &lt;span style=&quot;box-sizing: border-box;&quot; class=&quot;pl-s1&quot;&gt;r&lt;/span&gt;.&lt;span style=&quot;box-sizing: border-box; color: var(--color-prettylights-syntax-entity);&quot; class=&quot;pl-en&quot;&gt;area&lt;/span&gt;();&lt;/span&gt;&lt;/td&gt;&lt;/tr&gt;&lt;tr style=&quot;box-sizing: border-box;&quot; class=&quot;show-top-border&quot; data-hunk=&quot;1f829faa3dfd9437d9add38fa4ba800ac3f3bafc46fed3e3f6d62053028f5170&quot;&gt;&lt;td style=&quot;box-sizing: border-box; padding: 0px 10px; position: relative; width: 50px; min-width: 50px; font-family: ui-monospace, SFMono-Regular, &amp;quot;SF Mono&amp;quot;, Menlo, Consolas, &amp;quot;Liberation Mono&amp;quot;, monospace; font-size: 12px; line-height: 20px; color: var(--color-diff-blob-deletion-num-text); text-align: right; vertical-align: top; cursor: pointer; user-select: none; background-color: var(--color-diff-blob-deletion-num-bg); border-color: var(--color-danger-emphasis);&quot; class=&quot;blob-num blob-num-deletion js-linkable-line-number&quot; data-line-number=&quot;26&quot; id=&quot;diff-379f90ddc8dc13688fea867883699266f7e3aa4d1fbb3ea4ac97af1c7d1c66b6L26&quot;&gt;&lt;/td&gt;&lt;td style=&quot;box-sizing: border-box; padding: 0px 10px; position: relative; width: 50px; min-width: 50px; font-family: ui-monospace, SFMono-Regular, &amp;quot;SF Mono&amp;quot;, Menlo, Consolas, &amp;quot;Liberation Mono&amp;quot;, monospace; font-size: 12px; line-height: 20px; color: var(--color-diff-blob-deletion-num-text); text-align: right; vertical-align: top; cursor: pointer; user-select: none; background-color: var(--color-diff-blob-deletion-num-bg); border-color: var(--color-danger-emphasis);&quot; class=&quot;blob-num blob-num-deletion empty-cell&quot;&gt;&lt;/td&gt;&lt;td style=&quot;box-sizing: border-box; padding: 0px 10px 0px 22px; position: relative; line-height: 20px; vertical-align: top; background-color: var(--color-diff-blob-deletion-line-bg); outline: transparent dashed 1px;&quot; class=&quot;blob-code blob-code-deletion js-file-line&quot;&gt;&lt;button style=&quot;box-sizing: border-box; font-style: inherit; font-variant: inherit; font-weight: inherit; font-stretch: inherit; font-size: inherit; line-height: 21px; font-family: inherit; font-optical-sizing: inherit; font-kerning: inherit; font-feature-settings: inherit; font-variation-settings: inherit; margin: -2px -10px -2px -32px; overflow: visible; text-transform: none; appearance: button; cursor: pointer; border-radius: 6px; display: inline-block; padding: 0px; color: var(--color-fg-on-emphasis); text-decoration: none; user-select: none; background-color: var(--color-accent-emphasis); border: 0px; position: relative; z-index: 1; float: left; width: 22px; height: 22px; text-align: center; text-indent: 0px; box-shadow: var(--color-shadow-medium); opacity: 0; transition: transform 0.1s ease-in-out 0s; transform: scale(0.8, 0.8);&quot; class=&quot;add-line-comment js-add-line-comment js-add-single-line-comment btn-link&quot; data-view-component=&quot;true&quot; type=&quot;button&quot; aria-label=&quot;Add line comment&quot; data-original-line=&quot;-    }&quot; data-line=&quot;26&quot; data-side=&quot;left&quot; data-position=&quot;16&quot; data-anchor=&quot;diff-379f90ddc8dc13688fea867883699266f7e3aa4d1fbb3ea4ac97af1c7d1c66b6&quot; data-path=&quot;com/cc/java/App.java&quot;&gt;&lt;svg class=&quot;octicon octicon-plus&quot; data-view-component=&quot;true&quot; width=&quot;16&quot; version=&quot;1.1&quot; viewBox=&quot;0 0 16 16&quot; height=&quot;16&quot; aria-hidden=&quot;true&quot;&gt;&lt;path d=&quot;M7.75 2a.75.75 0 0 1 .75.75V7h4.25a.75.75 0 0 1 0 1.5H8.5v4.25a.75.75 0 0 1-1.5 0V8.5H2.75a.75.75 0 0 1 0-1.5H7V2.75A.75.75 0 0 1 7.75 2Z&quot;&gt;&lt;/path&gt;&lt;/svg&gt;&lt;/button&gt;&lt;span style=&quot;box-sizing: border-box; display: table-cell; overflow: visible; font-family: ui-monospace, SFMono-Regular, &amp;quot;SF Mono&amp;quot;, Menlo, Consolas, &amp;quot;Liberation Mono&amp;quot;, monospace; font-size: 12px; color: var(--color-fg-default); overflow-wrap: anywhere;&quot; data-code-marker=&quot;-&quot; class=&quot;blob-code-inner blob-code-marker js-code-nav-pass js-skip-tagsearch&quot;&gt;    }&lt;/span&gt;&lt;/td&gt;&lt;/tr&gt;&lt;tr style=&quot;box-sizing: border-box;&quot; class=&quot;show-top-border&quot; data-hunk=&quot;1f829faa3dfd9437d9add38fa4ba800ac3f3bafc46fed3e3f6d62053028f5170&quot;&gt;&lt;td style=&quot;box-sizing: border-box; padding: 0px 10px; position: relative; width: 50px; min-width: 50px; font-family: ui-monospace, SFMono-Regular, &amp;quot;SF Mono&amp;quot;, Menlo, Consolas, &amp;quot;Liberation Mono&amp;quot;, monospace; font-size: 12px; line-height: 20px; color: var(--color-diff-blob-deletion-num-text); text-align: right; vertical-align: top; cursor: pointer; user-select: none; background-color: var(--color-diff-blob-deletion-num-bg); border-color: var(--color-danger-emphasis);&quot; class=&quot;blob-num blob-num-deletion js-linkable-line-number&quot; data-line-number=&quot;27&quot; id=&quot;diff-379f90ddc8dc13688fea867883699266f7e3aa4d1fbb3ea4ac97af1c7d1c66b6L27&quot;&gt;&lt;/td&gt;&lt;td style=&quot;box-sizing: border-box; padding: 0px 10px; position: relative; width: 50px; min-width: 50px; font-family: ui-monospace, SFMono-Regular, &amp;quot;SF Mono&amp;quot;, Menlo, Consolas, &amp;quot;Liberation Mono&amp;quot;, monospace; font-size: 12px; line-height: 20px; color: var(--color-diff-blob-deletion-num-text); text-align: right; vertical-align: top; cursor: pointer; user-select: none; background-color: var(--color-diff-blob-deletion-num-bg); border-color: var(--color-danger-emphasis);&quot; class=&quot;blob-num blob-num-deletion empty-cell&quot;&gt;&lt;/td&gt;&lt;td style=&quot;box-sizing: border-box; padding: 0px 10px 0px 22px; position: relative; line-height: 20px; vertical-align: top; background-color: var(--color-diff-blob-deletion-line-bg); outline: transparent dashed 1px;&quot; class=&quot;blob-code blob-code-deletion js-file-line&quot;&gt;&lt;button style=&quot;box-sizing: border-box; font-style: inherit; font-variant: inherit; font-weight: inherit; font-stretch: inherit; font-size: inherit; line-height: 21px; font-family: inherit; font-optical-sizing: inherit; font-kerning: inherit; font-feature-settings: inherit; font-variation-settings: inherit; margin: -2px -10px -2px -32px; overflow: visible; text-transform: none; appearance: button; cursor: pointer; border-radius: 6px; display: inline-block; padding: 0px; color: var(--color-fg-on-emphasis); text-decoration: none; user-select: none; background-color: var(--color-accent-emphasis); border: 0px; position: relative; z-index: 1; float: left; width: 22px; height: 22px; text-align: center; text-indent: 0px; box-shadow: var(--color-shadow-medium); opacity: 0; transition: transform 0.1s ease-in-out 0s; transform: scale(0.8, 0.8);&quot; class=&quot;add-line-comment js-add-line-comment js-add-single-line-comment btn-link&quot; data-view-component=&quot;true&quot; type=&quot;button&quot; aria-label=&quot;Add line comment&quot; data-original-line=&quot;-&quot; data-line=&quot;27&quot; data-side=&quot;left&quot; data-position=&quot;17&quot; data-anchor=&quot;diff-379f90ddc8dc13688fea867883699266f7e3aa4d1fbb3ea4ac97af1c7d1c66b6&quot; data-path=&quot;com/cc/java/App.java&quot;&gt;&lt;svg class=&quot;octicon octicon-plus&quot; data-view-component=&quot;true&quot; width=&quot;16&quot; version=&quot;1.1&quot; viewBox=&quot;0 0 16 16&quot; height=&quot;16&quot; aria-hidden=&quot;true&quot;&gt;&lt;path d=&quot;M7.75 2a.75.75 0 0 1 .75.75V7h4.25a.75.75 0 0 1 0 1.5H8.5v4.25a.75.75 0 0 1-1.5 0V8.5H2.75a.75.75 0 0 1 0-1.5H7V2.75A.75.75 0 0 1 7.75 2Z&quot;&gt;&lt;/path&gt;&lt;/svg&gt;&lt;/button&gt;&lt;span style=&quot;box-sizing: border-box; display: table-cell; overflow: visible; font-family: ui-monospace, SFMono-Regular, &amp;quot;SF Mono&amp;quot;, Menlo, Consolas, &amp;quot;Liberation Mono&amp;quot;, monospace; font-size: 12px; color: var(--color-fg-default); overflow-wrap: anywhere;&quot; data-code-marker=&quot;-&quot; class=&quot;blob-code-inner blob-code-marker js-code-nav-pass js-skip-tagsearch&quot;&gt;&lt;br style=&quot;box-sizing: border-box;&quot;&gt;&lt;/span&gt;&lt;/td&gt;&lt;/tr&gt;&lt;tr style=&quot;box-sizing: border-box;&quot; class=&quot;show-top-border&quot; data-hunk=&quot;1f829faa3dfd9437d9add38fa4ba800ac3f3bafc46fed3e3f6d62053028f5170&quot;&gt;&lt;td style=&quot;box-sizing: border-box; padding: 0px 10px; position: relative; width: 50px; min-width: 50px; font-family: ui-monospace, SFMono-Regular, &amp;quot;SF Mono&amp;quot;, Menlo, Consolas, &amp;quot;Liberation Mono&amp;quot;, monospace; font-size: 12px; line-height: 20px; color: var(--color-diff-blob-deletion-num-text); text-align: right; vertical-align: top; cursor: pointer; user-select: none; background-color: var(--color-diff-blob-deletion-num-bg); border-color: var(--color-danger-emphasis);&quot; class=&quot;blob-num blob-num-deletion js-linkable-line-number&quot; data-line-number=&quot;28&quot; id=&quot;diff-379f90ddc8dc13688fea867883699266f7e3aa4d1fbb3ea4ac97af1c7d1c66b6L28&quot;&gt;&lt;/td&gt;&lt;td style=&quot;box-sizing: border-box; padding: 0px 10px; position: relative; width: 50px; min-width: 50px; font-family: ui-monospace, SFMono-Regular, &amp;quot;SF Mono&amp;quot;, Menlo, Consolas, &amp;quot;Liberation Mono&amp;quot;, monospace; font-size: 12px; line-height: 20px; color: var(--color-diff-blob-deletion-num-text); text-align: right; vertical-align: top; cursor: pointer; user-select: none; background-color: var(--color-diff-blob-deletion-num-bg); border-color: var(--color-danger-emphasis);&quot; class=&quot;blob-num blob-num-deletion empty-cell&quot;&gt;&lt;/td&gt;&lt;td style=&quot;box-sizing: border-box; padding: 0px 10px 0px 22px; position: relative; line-height: 20px; vertical-align: top; background-color: var(--color-diff-blob-deletion-line-bg); outline: transparent dashed 1px;&quot; class=&quot;blob-code blob-code-deletion js-file-line&quot;&gt;&lt;button style=&quot;box-sizing: border-box; font-style: inherit; font-variant: inherit; font-weight: inherit; font-stretch: inherit; font-size: inherit; line-height: 21px; font-family: inherit; font-optical-sizing: inherit; font-kerning: inherit; font-feature-settings: inherit; font-variation-settings: inherit; margin: -2px -10px -2px -32px; overflow: visible; text-transform: none; appearance: button; cursor: pointer; border-radius: 6px; display: inline-block; padding: 0px; color: var(--color-fg-on-emphasis); text-decoration: none; user-select: none; background-color: var(--color-accent-emphasis); border: 0px; position: relative; z-index: 1; float: left; width: 22px; height: 22px; text-align: center; text-indent: 0px; box-shadow: var(--color-shadow-medium); opacity: 0; transition: transform 0.1s ease-in-out 0s; transform: scale(0.8, 0.8);&quot; class=&quot;add-line-comment js-add-line-comment js-add-single-line-comment btn-link&quot; data-view-component=&quot;true&quot; type=&quot;button&quot; aria-label=&quot;Add line comment&quot; data-original-line=&quot;-    private static double areaDiff(Rectangle r, Triangle t) {&quot; data-line=&quot;28&quot; data-side=&quot;left&quot; data-position=&quot;18&quot; data-anchor=&quot;diff-379f90ddc8dc13688fea867883699266f7e3aa4d1fbb3ea4ac97af1c7d1c66b6&quot; data-path=&quot;com/cc/java/App.java&quot;&gt;&lt;svg class=&quot;octicon octicon-plus&quot; data-view-component=&quot;true&quot; width=&quot;16&quot; version=&quot;1.1&quot; viewBox=&quot;0 0 16 16&quot; height=&quot;16&quot; aria-hidden=&quot;true&quot;&gt;&lt;path d=&quot;M7.75 2a.75.75 0 0 1 .75.75V7h4.25a.75.75 0 0 1 0 1.5H8.5v4.25a.75.75 0 0 1-1.5 0V8.5H2.75a.75.75 0 0 1 0-1.5H7V2.75A.75.75 0 0 1 7.75 2Z&quot;&gt;&lt;/path&gt;&lt;/svg&gt;&lt;/button&gt;&lt;span style=&quot;box-sizing: border-box; display: table-cell; overflow: visible; font-family: ui-monospace, SFMono-Regular, &amp;quot;SF Mono&amp;quot;, Menlo, Consolas, &amp;quot;Liberation Mono&amp;quot;, monospace; font-size: 12px; color: var(--color-fg-default); overflow-wrap: anywhere;&quot; data-code-marker=&quot;-&quot; class=&quot;blob-code-inner blob-code-marker js-code-nav-pass js-skip-tagsearch&quot;&gt;    &lt;span style=&quot;box-sizing: border-box; color: var(--color-prettylights-syntax-keyword);&quot; class=&quot;pl-k&quot;&gt;private&lt;/span&gt; &lt;span style=&quot;box-sizing: border-box; color: var(--color-prettylights-syntax-keyword);&quot; class=&quot;pl-k&quot;&gt;static&lt;/span&gt; &lt;span style=&quot;box-sizing: border-box; color: var(--color-prettylights-syntax-storage-modifier-import);&quot; class=&quot;pl-smi&quot;&gt;double&lt;/span&gt; &lt;span style=&quot;box-sizing: border-box; color: var(--color-prettylights-syntax-entity);&quot; class=&quot;pl-en&quot;&gt;areaDiff&lt;/span&gt;(&lt;span style=&quot;box-sizing: border-box; color: var(--color-prettylights-syntax-storage-modifier-import);&quot; class=&quot;pl-smi&quot;&gt;Rectangle&lt;/span&gt; &lt;span style=&quot;box-sizing: border-box;&quot; class=&quot;pl-s1&quot;&gt;r&lt;/span&gt;, &lt;span style=&quot;box-sizing: border-box; color: var(--color-prettylights-syntax-storage-modifier-import);&quot; class=&quot;pl-smi&quot;&gt;Triangle&lt;/span&gt; &lt;span style=&quot;box-sizing: border-box;&quot; class=&quot;pl-s1&quot;&gt;t&lt;/span&gt;) {&lt;/span&gt;&lt;/td&gt;&lt;/tr&gt;&lt;tr style=&quot;box-sizing: border-box;&quot; class=&quot;show-top-border&quot; data-hunk=&quot;1f829faa3dfd9437d9add38fa4ba800ac3f3bafc46fed3e3f6d62053028f5170&quot;&gt;&lt;td style=&quot;box-sizing: border-box; padding: 0px 10px; position: relative; width: 50px; min-width: 50px; font-family: ui-monospace, SFMono-Regular, &amp;quot;SF Mono&amp;quot;, Menlo, Consolas, &amp;quot;Liberation Mono&amp;quot;, monospace; font-size: 12px; line-height: 20px; color: var(--color-diff-blob-deletion-num-text); text-align: right; vertical-align: top; cursor: pointer; user-select: none; background-color: var(--color-diff-blob-deletion-num-bg); border-color: var(--color-danger-emphasis);&quot; class=&quot;blob-num blob-num-deletion js-linkable-line-number&quot; data-line-number=&quot;29&quot; id=&quot;diff-379f90ddc8dc13688fea867883699266f7e3aa4d1fbb3ea4ac97af1c7d1c66b6L29&quot;&gt;&lt;/td&gt;&lt;td style=&quot;box-sizing: border-box; padding: 0px 10px; position: relative; width: 50px; min-width: 50px; font-family: ui-monospace, SFMono-Regular, &amp;quot;SF Mono&amp;quot;, Menlo, Consolas, &amp;quot;Liberation Mono&amp;quot;, monospace; font-size: 12px; line-height: 20px; color: var(--color-diff-blob-deletion-num-text); text-align: right; vertical-align: top; cursor: pointer; user-select: none; background-color: var(--color-diff-blob-deletion-num-bg); border-color: var(--color-danger-emphasis);&quot; class=&quot;blob-num blob-num-deletion empty-cell&quot;&gt;&lt;/td&gt;&lt;td style=&quot;box-sizing: border-box; padding: 0px 10px 0px 22px; position: relative; line-height: 20px; vertical-align: top; background-color: var(--color-diff-blob-deletion-line-bg); outline: transparent dashed 1px;&quot; class=&quot;blob-code blob-code-deletion js-file-line&quot;&gt;&lt;button style=&quot;box-sizing: border-box; font-style: inherit; font-variant: inherit; font-weight: inherit; font-stretch: inherit; font-size: inherit; line-height: 21px; font-family: inherit; font-optical-sizing: inherit; font-kerning: inherit; font-feature-settings: inherit; font-variation-settings: inherit; margin: -2px -10px -2px -32px; overflow: visible; text-transform: none; appearance: button; cursor: pointer; border-radius: 6px; display: inline-block; padding: 0px; color: var(--color-fg-on-emphasis); text-decoration: none; user-select: none; background-color: var(--color-accent-emphasis); border: 0px; position: relative; z-index: 1; float: left; width: 22px; height: 22px; text-align: center; text-indent: 0px; box-shadow: var(--color-shadow-medium); opacity: 0; transition: transform 0.1s ease-in-out 0s; transform: scale(0.8, 0.8);&quot; class=&quot;add-line-comment js-add-line-comment js-add-single-line-comment btn-link&quot; data-view-component=&quot;true&quot; type=&quot;button&quot; aria-label=&quot;Add line comment&quot; data-original-line=&quot;-        return r.area() - t.area();&quot; data-line=&quot;29&quot; data-side=&quot;left&quot; data-position=&quot;19&quot; data-anchor=&quot;diff-379f90ddc8dc13688fea867883699266f7e3aa4d1fbb3ea4ac97af1c7d1c66b6&quot; data-path=&quot;com/cc/java/App.java&quot;&gt;&lt;svg class=&quot;octicon octicon-plus&quot; data-view-component=&quot;true&quot; width=&quot;16&quot; version=&quot;1.1&quot; viewBox=&quot;0 0 16 16&quot; height=&quot;16&quot; aria-hidden=&quot;true&quot;&gt;&lt;path d=&quot;M7.75 2a.75.75 0 0 1 .75.75V7h4.25a.75.75 0 0 1 0 1.5H8.5v4.25a.75.75 0 0 1-1.5 0V8.5H2.75a.75.75 0 0 1 0-1.5H7V2.75A.75.75 0 0 1 7.75 2Z&quot;&gt;&lt;/path&gt;&lt;/svg&gt;&lt;/button&gt;&lt;span style=&quot;box-sizing: border-box; display: table-cell; overflow: visible; font-family: ui-monospace, SFMono-Regular, &amp;quot;SF Mono&amp;quot;, Menlo, Consolas, &amp;quot;Liberation Mono&amp;quot;, monospace; font-size: 12px; color: var(--color-fg-default); overflow-wrap: anywhere;&quot; data-code-marker=&quot;-&quot; class=&quot;blob-code-inner blob-code-marker js-code-nav-pass js-skip-tagsearch&quot;&gt;        &lt;span style=&quot;box-sizing: border-box; color: var(--color-prettylights-syntax-keyword);&quot; class=&quot;pl-k&quot;&gt;return&lt;/span&gt; &lt;span style=&quot;box-sizing: border-box;&quot; class=&quot;pl-s1&quot;&gt;r&lt;/span&gt;.&lt;span style=&quot;box-sizing: border-box; color: var(--color-prettylights-syntax-entity);&quot; class=&quot;pl-en&quot;&gt;area&lt;/span&gt;() - &lt;span style=&quot;box-sizing: border-box;&quot; class=&quot;pl-s1&quot;&gt;t&lt;/span&gt;.&lt;span style=&quot;box-sizing: border-box; color: var(--color-prettylights-syntax-entity);&quot; class=&quot;pl-en&quot;&gt;area&lt;/span&gt;();&lt;/span&gt;&lt;/td&gt;&lt;/tr&gt;&lt;tr style=&quot;box-sizing: border-box;&quot; class=&quot;show-top-border&quot; data-hunk=&quot;1f829faa3dfd9437d9add38fa4ba800ac3f3bafc46fed3e3f6d62053028f5170&quot;&gt;&lt;td style=&quot;box-sizing: border-box; padding: 0px 10px; position: relative; width: 50px; min-width: 50px; font-family: ui-monospace, SFMono-Regular, &amp;quot;SF Mono&amp;quot;, Menlo, Consolas, &amp;quot;Liberation Mono&amp;quot;, monospace; font-size: 12px; line-height: 20px; color: var(--color-diff-blob-deletion-num-text); text-align: right; vertical-align: top; cursor: pointer; user-select: none; background-color: var(--color-diff-blob-deletion-num-bg); border-color: var(--color-danger-emphasis);&quot; class=&quot;blob-num blob-num-deletion js-linkable-line-number&quot; data-line-number=&quot;30&quot; id=&quot;diff-379f90ddc8dc13688fea867883699266f7e3aa4d1fbb3ea4ac97af1c7d1c66b6L30&quot;&gt;&lt;/td&gt;&lt;td style=&quot;box-sizing: border-box; padding: 0px 10px; position: relative; width: 50px; min-width: 50px; font-family: ui-monospace, SFMono-Regular, &amp;quot;SF Mono&amp;quot;, Menlo, Consolas, &amp;quot;Liberation Mono&amp;quot;, monospace; font-size: 12px; line-height: 20px; color: var(--color-diff-blob-deletion-num-text); text-align: right; vertical-align: top; cursor: pointer; user-select: none; background-color: var(--color-diff-blob-deletion-num-bg); border-color: var(--color-danger-emphasis);&quot; class=&quot;blob-num blob-num-deletion empty-cell&quot;&gt;&lt;/td&gt;&lt;td style=&quot;box-sizing: border-box; padding: 0px 10px 0px 22px; position: relative; line-height: 20px; vertical-align: top; background-color: var(--color-diff-blob-deletion-line-bg); outline: transparent dashed 1px;&quot; class=&quot;blob-code blob-code-deletion js-file-line&quot;&gt;&lt;button style=&quot;box-sizing: border-box; font-style: inherit; font-variant: inherit; font-weight: inherit; font-stretch: inherit; font-size: inherit; line-height: 21px; font-family: inherit; font-optical-sizing: inherit; font-kerning: inherit; font-feature-settings: inherit; font-variation-settings: inherit; margin: -2px -10px -2px -32px; overflow: visible; text-transform: none; appearance: button; cursor: pointer; border-radius: 6px; display: inline-block; padding: 0px; color: var(--color-fg-on-emphasis); text-decoration: none; user-select: none; background-color: var(--color-accent-emphasis); border: 0px; position: relative; z-index: 1; float: left; width: 22px; height: 22px; text-align: center; text-indent: 0px; box-shadow: var(--color-shadow-medium); opacity: 0; transition: transform 0.1s ease-in-out 0s; transform: scale(0.8, 0.8);&quot; class=&quot;add-line-comment js-add-line-comment js-add-single-line-comment btn-link&quot; data-view-component=&quot;true&quot; type=&quot;button&quot; aria-label=&quot;Add line comment&quot; data-original-line=&quot;-    }&quot; data-line=&quot;30&quot; data-side=&quot;left&quot; data-position=&quot;20&quot; data-anchor=&quot;diff-379f90ddc8dc13688fea867883699266f7e3aa4d1fbb3ea4ac97af1c7d1c66b6&quot; data-path=&quot;com/cc/java/App.java&quot;&gt;&lt;svg class=&quot;octicon octicon-plus&quot; data-view-component=&quot;true&quot; width=&quot;16&quot; version=&quot;1.1&quot; viewBox=&quot;0 0 16 16&quot; height=&quot;16&quot; aria-hidden=&quot;true&quot;&gt;&lt;path d=&quot;M7.75 2a.75.75 0 0 1 .75.75V7h4.25a.75.75 0 0 1 0 1.5H8.5v4.25a.75.75 0 0 1-1.5 0V8.5H2.75a.75.75 0 0 1 0-1.5H7V2.75A.75.75 0 0 1 7.75 2Z&quot;&gt;&lt;/path&gt;&lt;/svg&gt;&lt;/button&gt;&lt;span style=&quot;box-sizing: border-box; display: table-cell; overflow: visible; font-family: ui-monospace, SFMono-Regular, &amp;quot;SF Mono&amp;quot;, Menlo, Consolas, &amp;quot;Liberation Mono&amp;quot;, monospace; font-size: 12px; color: var(--color-fg-default); overflow-wrap: anywhere;&quot; data-code-marker=&quot;-&quot; class=&quot;blob-code-inner blob-code-marker js-code-nav-pass js-skip-tagsearch&quot;&gt;    }&lt;/span&gt;&lt;/td&gt;&lt;/tr&gt;&lt;tr style=&quot;box-sizing: border-box;&quot; class=&quot;show-top-border&quot; data-hunk=&quot;1f829faa3dfd9437d9add38fa4ba800ac3f3bafc46fed3e3f6d62053028f5170&quot;&gt;&lt;td style=&quot;box-sizing: border-box; padding: 0px 10px; position: relative; width: 50px; min-width: 50px; font-family: ui-monospace, SFMono-Regular, &amp;quot;SF Mono&amp;quot;, Menlo, Consolas, &amp;quot;Liberation Mono&amp;quot;, monospace; font-size: 12px; line-height: 20px; color: var(--color-diff-blob-deletion-num-text); text-align: right; vertical-align: top; cursor: pointer; user-select: none; background-color: var(--color-diff-blob-deletion-num-bg); border-color: var(--color-danger-emphasis);&quot; class=&quot;blob-num blob-num-deletion js-linkable-line-number&quot; data-line-number=&quot;31&quot; id=&quot;diff-379f90ddc8dc13688fea867883699266f7e3aa4d1fbb3ea4ac97af1c7d1c66b6L31&quot;&gt;&lt;/td&gt;&lt;td style=&quot;box-sizing: border-box; padding: 0px 10px; position: relative; width: 50px; min-width: 50px; font-family: ui-monospace, SFMono-Regular, &amp;quot;SF Mono&amp;quot;, Menlo, Consolas, &amp;quot;Liberation Mono&amp;quot;, monospace; font-size: 12px; line-height: 20px; color: var(--color-diff-blob-deletion-num-text); text-align: right; vertical-align: top; cursor: pointer; user-select: none; background-color: var(--color-diff-blob-deletion-num-bg); border-color: var(--color-danger-emphasis);&quot; class=&quot;blob-num blob-num-deletion empty-cell&quot;&gt;&lt;/td&gt;&lt;td style=&quot;box-sizing: border-box; padding: 0px 10px 0px 22px; position: relative; line-height: 20px; vertical-align: top; background-color: var(--color-diff-blob-deletion-line-bg); outline: transparent dashed 1px;&quot; class=&quot;blob-code blob-code-deletion js-file-line&quot;&gt;&lt;button style=&quot;box-sizing: border-box; font-style: inherit; font-variant: inherit; font-weight: inherit; font-stretch: inherit; font-size: inherit; line-height: 21px; font-family: inherit; font-optical-sizing: inherit; font-kerning: inherit; font-feature-settings: inherit; font-variation-settings: inherit; margin: -2px -10px -2px -32px; overflow: visible; text-transform: none; appearance: button; cursor: pointer; border-radius: 6px; display: inline-block; padding: 0px; color: var(--color-fg-on-emphasis); text-decoration: none; user-select: none; background-color: var(--color-accent-emphasis); border: 0px; position: relative; z-index: 1; float: left; width: 22px; height: 22px; text-align: center; text-indent: 0px; box-shadow: var(--color-shadow-medium); opacity: 0; transition: transform 0.1s ease-in-out 0s; transform: scale(0.8, 0.8);&quot; class=&quot;add-line-comment js-add-line-comment js-add-single-line-comment btn-link&quot; data-view-component=&quot;true&quot; type=&quot;button&quot; aria-label=&quot;Add line comment&quot; data-original-line=&quot;-&quot; data-line=&quot;31&quot; data-side=&quot;left&quot; data-position=&quot;21&quot; data-anchor=&quot;diff-379f90ddc8dc13688fea867883699266f7e3aa4d1fbb3ea4ac97af1c7d1c66b6&quot; data-path=&quot;com/cc/java/App.java&quot;&gt;&lt;svg class=&quot;octicon octicon-plus&quot; data-view-component=&quot;true&quot; width=&quot;16&quot; version=&quot;1.1&quot; viewBox=&quot;0 0 16 16&quot; height=&quot;16&quot; aria-hidden=&quot;true&quot;&gt;&lt;path d=&quot;M7.75 2a.75.75 0 0 1 .75.75V7h4.25a.75.75 0 0 1 0 1.5H8.5v4.25a.75.75 0 0 1-1.5 0V8.5H2.75a.75.75 0 0 1 0-1.5H7V2.75A.75.75 0 0 1 7.75 2Z&quot;&gt;&lt;/path&gt;&lt;/svg&gt;&lt;/button&gt;&lt;span style=&quot;box-sizing: border-box; display: table-cell; overflow: visible; font-family: ui-monospace, SFMono-Regular, &amp;quot;SF Mono&amp;quot;, Menlo, Consolas, &amp;quot;Liberation Mono&amp;quot;, monospace; font-size: 12px; color: var(--color-fg-default); overflow-wrap: anywhere;&quot; data-code-marker=&quot;-&quot; class=&quot;blob-code-inner blob-code-marker js-code-nav-pass js-skip-tagsearch&quot;&gt;&lt;br style=&quot;box-sizing: border-box;&quot;&gt;&lt;/span&gt;&lt;/td&gt;&lt;/tr&gt;&lt;tr style=&quot;box-sizing: border-box;&quot; class=&quot;show-top-border&quot; data-hunk=&quot;1f829faa3dfd9437d9add38fa4ba800ac3f3bafc46fed3e3f6d62053028f5170&quot;&gt;&lt;td style=&quot;box-sizing: border-box; padding: 0px 10px; position: relative; width: 50px; min-width: 50px; font-family: ui-monospace, SFMono-Regular, &amp;quot;SF Mono&amp;quot;, Menlo, Consolas, &amp;quot;Liberation Mono&amp;quot;, monospace; font-size: 12px; line-height: 20px; color: var(--color-diff-blob-deletion-num-text); text-align: right; vertical-align: top; cursor: pointer; user-select: none; background-color: var(--color-diff-blob-deletion-num-bg); border-color: var(--color-danger-emphasis);&quot; class=&quot;blob-num blob-num-deletion js-linkable-line-number&quot; data-line-number=&quot;32&quot; id=&quot;diff-379f90ddc8dc13688fea867883699266f7e3aa4d1fbb3ea4ac97af1c7d1c66b6L32&quot;&gt;&lt;/td&gt;&lt;td style=&quot;box-sizing: border-box; padding: 0px 10px; position: relative; width: 50px; min-width: 50px; font-family: ui-monospace, SFMono-Regular, &amp;quot;SF Mono&amp;quot;, Menlo, Consolas, &amp;quot;Liberation Mono&amp;quot;, monospace; font-size: 12px; line-height: 20px; color: var(--color-diff-blob-deletion-num-text); text-align: right; vertical-align: top; cursor: pointer; user-select: none; background-color: var(--color-diff-blob-deletion-num-bg); border-color: var(--color-danger-emphasis);&quot; class=&quot;blob-num blob-num-deletion empty-cell&quot;&gt;&lt;/td&gt;&lt;td style=&quot;box-sizing: border-box; padding: 0px 10px 0px 22px; position: relative; line-height: 20px; vertical-align: top; background-color: var(--color-diff-blob-deletion-line-bg); outline: transparent dashed 1px;&quot; class=&quot;blob-code blob-code-deletion js-file-line&quot;&gt;&lt;button style=&quot;box-sizing: border-box; font-style: inherit; font-variant: inherit; font-weight: inherit; font-stretch: inherit; font-size: inherit; line-height: 21px; font-family: inherit; font-optical-sizing: inherit; font-kerning: inherit; font-feature-settings: inherit; font-variation-settings: inherit; margin: -2px -10px -2px -32px; overflow: visible; text-transform: none; appearance: button; cursor: pointer; border-radius: 6px; display: inline-block; padding: 0px; color: var(--color-fg-on-emphasis); text-decoration: none; user-select: none; background-color: var(--color-accent-emphasis); border: 0px; position: relative; z-index: 1; float: left; width: 22px; height: 22px; text-align: center; text-indent: 0px; box-shadow: var(--color-shadow-medium); opacity: 0; transition: transform 0.1s ease-in-out 0s; transform: scale(0.8, 0.8);&quot; class=&quot;add-line-comment js-add-line-comment js-add-single-line-comment btn-link&quot; data-view-component=&quot;true&quot; type=&quot;button&quot; aria-label=&quot;Add line comment&quot; data-original-line=&quot;-    private static double areaDiff(Rectangle r, Circle c) {&quot; data-line=&quot;32&quot; data-side=&quot;left&quot; data-position=&quot;22&quot; data-anchor=&quot;diff-379f90ddc8dc13688fea867883699266f7e3aa4d1fbb3ea4ac97af1c7d1c66b6&quot; data-path=&quot;com/cc/java/App.java&quot;&gt;&lt;svg class=&quot;octicon octicon-plus&quot; data-view-component=&quot;true&quot; width=&quot;16&quot; version=&quot;1.1&quot; viewBox=&quot;0 0 16 16&quot; height=&quot;16&quot; aria-hidden=&quot;true&quot;&gt;&lt;path d=&quot;M7.75 2a.75.75 0 0 1 .75.75V7h4.25a.75.75 0 0 1 0 1.5H8.5v4.25a.75.75 0 0 1-1.5 0V8.5H2.75a.75.75 0 0 1 0-1.5H7V2.75A.75.75 0 0 1 7.75 2Z&quot;&gt;&lt;/path&gt;&lt;/svg&gt;&lt;/button&gt;&lt;span style=&quot;box-sizing: border-box; display: table-cell; overflow: visible; font-family: ui-monospace, SFMono-Regular, &amp;quot;SF Mono&amp;quot;, Menlo, Consolas, &amp;quot;Liberation Mono&amp;quot;, monospace; font-size: 12px; color: var(--color-fg-default); overflow-wrap: anywhere;&quot; data-code-marker=&quot;-&quot; class=&quot;blob-code-inner blob-code-marker js-code-nav-pass js-skip-tagsearch&quot;&gt;    &lt;span style=&quot;box-sizing: border-box; color: var(--color-prettylights-syntax-keyword);&quot; class=&quot;pl-k&quot;&gt;private&lt;/span&gt; &lt;span style=&quot;box-sizing: border-box; color: var(--color-prettylights-syntax-keyword);&quot; class=&quot;pl-k&quot;&gt;static&lt;/span&gt; &lt;span style=&quot;box-sizing: border-box; color: var(--color-prettylights-syntax-storage-modifier-import);&quot; class=&quot;pl-smi&quot;&gt;double&lt;/span&gt; &lt;span style=&quot;box-sizing: border-box; color: var(--color-prettylights-syntax-entity);&quot; class=&quot;pl-en&quot;&gt;areaDiff&lt;/span&gt;(&lt;span style=&quot;box-sizing: border-box; color: var(--color-prettylights-syntax-storage-modifier-import);&quot; class=&quot;pl-smi&quot;&gt;Rectangle&lt;/span&gt; &lt;span style=&quot;box-sizing: border-box;&quot; class=&quot;pl-s1&quot;&gt;r&lt;/span&gt;, &lt;span style=&quot;box-sizing: border-box; color: var(--color-prettylights-syntax-storage-modifier-import);&quot; class=&quot;pl-smi&quot;&gt;Circle&lt;/span&gt; &lt;span style=&quot;box-sizing: border-box;&quot; class=&quot;pl-s1&quot;&gt;c&lt;/span&gt;) {&lt;/span&gt;&lt;/td&gt;&lt;/tr&gt;&lt;tr style=&quot;box-sizing: border-box;&quot; class=&quot;show-top-border&quot; data-hunk=&quot;1f829faa3dfd9437d9add38fa4ba800ac3f3bafc46fed3e3f6d62053028f5170&quot;&gt;&lt;td style=&quot;box-sizing: border-box; padding: 0px 10px; position: relative; width: 50px; min-width: 50px; font-family: ui-monospace, SFMono-Regular, &amp;quot;SF Mono&amp;quot;, Menlo, Consolas, &amp;quot;Liberation Mono&amp;quot;, monospace; font-size: 12px; line-height: 20px; color: var(--color-diff-blob-deletion-num-text); text-align: right; vertical-align: top; cursor: pointer; user-select: none; background-color: var(--color-diff-blob-deletion-num-bg); border-color: var(--color-danger-emphasis);&quot; class=&quot;blob-num blob-num-deletion js-linkable-line-number&quot; data-line-number=&quot;33&quot; id=&quot;diff-379f90ddc8dc13688fea867883699266f7e3aa4d1fbb3ea4ac97af1c7d1c66b6L33&quot;&gt;&lt;/td&gt;&lt;td style=&quot;box-sizing: border-box; padding: 0px 10px; position: relative; width: 50px; min-width: 50px; font-family: ui-monospace, SFMono-Regular, &amp;quot;SF Mono&amp;quot;, Menlo, Consolas, &amp;quot;Liberation Mono&amp;quot;, monospace; font-size: 12px; line-height: 20px; color: var(--color-diff-blob-deletion-num-text); text-align: right; vertical-align: top; cursor: pointer; user-select: none; background-color: var(--color-diff-blob-deletion-num-bg); border-color: var(--color-danger-emphasis);&quot; class=&quot;blob-num blob-num-deletion empty-cell&quot;&gt;&lt;/td&gt;&lt;td style=&quot;box-sizing: border-box; padding: 0px 10px 0px 22px; position: relative; line-height: 20px; vertical-align: top; background-color: var(--color-diff-blob-deletion-line-bg); outline: transparent dashed 1px;&quot; class=&quot;blob-code blob-code-deletion js-file-line&quot;&gt;&lt;button style=&quot;box-sizing: border-box; font-style: inherit; font-variant: inherit; font-weight: inherit; font-stretch: inherit; font-size: inherit; line-height: 21px; font-family: inherit; font-optical-sizing: inherit; font-kerning: inherit; font-feature-settings: inherit; font-variation-settings: inherit; margin: -2px -10px -2px -32px; overflow: visible; text-transform: none; appearance: button; cursor: pointer; border-radius: 6px; display: inline-block; padding: 0px; color: var(--color-fg-on-emphasis); text-decoration: none; user-select: none; background-color: var(--color-accent-emphasis); border: 0px; position: relative; z-index: 1; float: left; width: 22px; height: 22px; text-align: center; text-indent: 0px; box-shadow: var(--color-shadow-medium); opacity: 0; transition: transform 0.1s ease-in-out 0s; transform: scale(0.8, 0.8);&quot; class=&quot;add-line-comment js-add-line-comment js-add-single-line-comment btn-link&quot; data-view-component=&quot;true&quot; type=&quot;button&quot; aria-label=&quot;Add line comment&quot; data-original-line=&quot;-        return r.area() - c.area();&quot; data-line=&quot;33&quot; data-side=&quot;left&quot; data-position=&quot;23&quot; data-anchor=&quot;diff-379f90ddc8dc13688fea867883699266f7e3aa4d1fbb3ea4ac97af1c7d1c66b6&quot; data-path=&quot;com/cc/java/App.java&quot;&gt;&lt;svg class=&quot;octicon octicon-plus&quot; data-view-component=&quot;true&quot; width=&quot;16&quot; version=&quot;1.1&quot; viewBox=&quot;0 0 16 16&quot; height=&quot;16&quot; aria-hidden=&quot;true&quot;&gt;&lt;path d=&quot;M7.75 2a.75.75 0 0 1 .75.75V7h4.25a.75.75 0 0 1 0 1.5H8.5v4.25a.75.75 0 0 1-1.5 0V8.5H2.75a.75.75 0 0 1 0-1.5H7V2.75A.75.75 0 0 1 7.75 2Z&quot;&gt;&lt;/path&gt;&lt;/svg&gt;&lt;/button&gt;&lt;span style=&quot;box-sizing: border-box; display: table-cell; overflow: visible; font-family: ui-monospace, SFMono-Regular, &amp;quot;SF Mono&amp;quot;, Menlo, Consolas, &amp;quot;Liberation Mono&amp;quot;, monospace; font-size: 12px; color: var(--color-fg-default); overflow-wrap: anywhere;&quot; data-code-marker=&quot;-&quot; class=&quot;blob-code-inner blob-code-marker js-code-nav-pass js-skip-tagsearch&quot;&gt;        &lt;span style=&quot;box-sizing: border-box; color: var(--color-prettylights-syntax-keyword);&quot; class=&quot;pl-k&quot;&gt;return&lt;/span&gt; &lt;span style=&quot;box-sizing: border-box;&quot; class=&quot;pl-s1&quot;&gt;r&lt;/span&gt;.&lt;span style=&quot;box-sizing: border-box; color: var(--color-prettylights-syntax-entity);&quot; class=&quot;pl-en&quot;&gt;area&lt;/span&gt;() - &lt;span style=&quot;box-sizing: border-box;&quot; class=&quot;pl-s1&quot;&gt;c&lt;/span&gt;.&lt;span style=&quot;box-sizing: border-box; color: var(--color-prettylights-syntax-entity);&quot; class=&quot;pl-en&quot;&gt;area&lt;/span&gt;();&lt;/span&gt;&lt;/td&gt;&lt;/tr&gt;&lt;tr style=&quot;box-sizing: border-box;&quot; class=&quot;show-top-border&quot; data-hunk=&quot;1f829faa3dfd9437d9add38fa4ba800ac3f3bafc46fed3e3f6d62053028f5170&quot;&gt;&lt;td style=&quot;box-sizing: border-box; padding: 0px 10px; position: relative; width: 50px; min-width: 50px; font-family: ui-monospace, SFMono-Regular, &amp;quot;SF Mono&amp;quot;, Menlo, Consolas, &amp;quot;Liberation Mono&amp;quot;, monospace; font-size: 12px; line-height: 20px; color: var(--color-diff-blob-addition-num-text); text-align: right; vertical-align: top; cursor: pointer; user-select: none; background-color: var(--color-diff-blob-addition-num-bg); border-color: var(--color-success-emphasis);&quot; class=&quot;blob-num blob-num-addition empty-cell&quot;&gt;&lt;/td&gt;&lt;td style=&quot;box-sizing: border-box; padding: 0px 10px; position: relative; width: 50px; min-width: 50px; font-family: ui-monospace, SFMono-Regular, &amp;quot;SF Mono&amp;quot;, Menlo, Consolas, &amp;quot;Liberation Mono&amp;quot;, monospace; font-size: 12px; line-height: 20px; color: var(--color-diff-blob-addition-num-text); text-align: right; vertical-align: top; cursor: pointer; user-select: none; background-color: var(--color-diff-blob-addition-num-bg); border-color: var(--color-success-emphasis);&quot; class=&quot;blob-num blob-num-addition js-linkable-line-number js-code-nav-line-number js-blob-rnum&quot; data-line-number=&quot;30&quot; id=&quot;diff-379f90ddc8dc13688fea867883699266f7e3aa4d1fbb3ea4ac97af1c7d1c66b6R30&quot;&gt;&lt;/td&gt;&lt;td style=&quot;box-sizing: border-box; padding: 0px 10px 0px 22px; position: relative; line-height: 20px; vertical-align: top; background-color: var(--color-diff-blob-addition-line-bg); outline: transparent dotted 1px;&quot; class=&quot;blob-code blob-code-addition js-file-line&quot;&gt;&lt;button style=&quot;box-sizing: border-box; font-style: inherit; font-variant: inherit; font-weight: inherit; font-stretch: inherit; font-size: inherit; line-height: 21px; font-family: inherit; font-optical-sizing: inherit; font-kerning: inherit; font-feature-settings: inherit; font-variation-settings: inherit; margin: -2px -10px -2px -32px; overflow: visible; text-transform: none; appearance: button; cursor: pointer; border-radius: 6px; display: inline-block; padding: 0px; color: var(--color-fg-on-emphasis); text-decoration: none; user-select: none; background-color: var(--color-accent-emphasis); border: 0px; position: relative; z-index: 1; float: left; width: 22px; height: 22px; text-align: center; text-indent: 0px; box-shadow: var(--color-shadow-medium); opacity: 0; transition: transform 0.1s ease-in-out 0s; transform: scale(0.8, 0.8);&quot; class=&quot;add-line-comment js-add-line-comment js-add-single-line-comment btn-link&quot; data-view-component=&quot;true&quot; type=&quot;button&quot; aria-label=&quot;Add line comment&quot; data-original-line=&quot;+    // 2. Iteration: Polymorphie - besser!&quot; data-line=&quot;30&quot; data-side=&quot;right&quot; data-position=&quot;24&quot; data-anchor=&quot;diff-379f90ddc8dc13688fea867883699266f7e3aa4d1fbb3ea4ac97af1c7d1c66b6&quot; data-path=&quot;com/cc/java/App.java&quot;&gt;&lt;svg class=&quot;octicon octicon-plus&quot; data-view-component=&quot;true&quot; width=&quot;16&quot; version=&quot;1.1&quot; viewBox=&quot;0 0 16 16&quot; height=&quot;16&quot; aria-hidden=&quot;true&quot;&gt;&lt;path d=&quot;M7.75 2a.75.75 0 0 1 .75.75V7h4.25a.75.75 0 0 1 0 1.5H8.5v4.25a.75.75 0 0 1-1.5 0V8.5H2.75a.75.75 0 0 1 0-1.5H7V2.75A.75.75 0 0 1 7.75 2Z&quot;&gt;&lt;/path&gt;&lt;/svg&gt;&lt;/button&gt;&lt;span style=&quot;box-sizing: border-box; display: table-cell; overflow: visible; font-family: ui-monospace, SFMono-Regular, &amp;quot;SF Mono&amp;quot;, Menlo, Consolas, &amp;quot;Liberation Mono&amp;quot;, monospace; font-size: 12px; color: var(--color-fg-default); overflow-wrap: anywhere;&quot; data-code-marker=&quot;+&quot; class=&quot;blob-code-inner blob-code-marker js-code-nav-pass&quot;&gt;    &lt;span style=&quot;box-sizing: border-box; color: var(--color-prettylights-syntax-comment);&quot; class=&quot;pl-c&quot;&gt;// 2. Iteration: Polymorphie - besser!&lt;/span&gt;&lt;/span&gt;&lt;/td&gt;&lt;/tr&gt;&lt;tr style=&quot;box-sizing: border-box;&quot; class=&quot;show-top-border&quot; data-hunk=&quot;1f829faa3dfd9437d9add38fa4ba800ac3f3bafc46fed3e3f6d62053028f5170&quot;&gt;&lt;td style=&quot;box-sizing: border-box; padding: 0px 10px; position: relative; width: 50px; min-width: 50px; font-family: ui-monospace, SFMono-Regular, &amp;quot;SF Mono&amp;quot;, Menlo, Consolas, &amp;quot;Liberation Mono&amp;quot;, monospace; font-size: 12px; line-height: 20px; color: var(--color-diff-blob-addition-num-text); text-align: right; vertical-align: top; cursor: pointer; user-select: none; background-color: var(--color-diff-blob-addition-num-bg); border-color: var(--color-success-emphasis);&quot; class=&quot;blob-num blob-num-addition empty-cell&quot;&gt;&lt;/td&gt;&lt;td style=&quot;box-sizing: border-box; padding: 0px 10px; position: relative; width: 50px; min-width: 50px; font-family: ui-monospace, SFMono-Regular, &amp;quot;SF Mono&amp;quot;, Menlo, Consolas, &amp;quot;Liberation Mono&amp;quot;, monospace; font-size: 12px; line-height: 20px; color: var(--color-diff-blob-addition-num-text); text-align: right; vertical-align: top; cursor: pointer; user-select: none; background-color: var(--color-diff-blob-addition-num-bg); border-color: var(--color-success-emphasis);&quot; class=&quot;blob-num blob-num-addition js-linkable-line-number js-code-nav-line-number js-blob-rnum&quot; data-line-number=&quot;31&quot; id=&quot;diff-379f90ddc8dc13688fea867883699266f7e3aa4d1fbb3ea4ac97af1c7d1c66b6R31&quot;&gt;&lt;/td&gt;&lt;td style=&quot;box-sizing: border-box; padding: 0px 10px 0px 22px; position: relative; line-height: 20px; vertical-align: top; background-color: var(--color-diff-blob-addition-line-bg); outline: transparent dotted 1px;&quot; class=&quot;blob-code blob-code-addition js-file-line&quot;&gt;&lt;button style=&quot;box-sizing: border-box; font-style: inherit; font-variant: inherit; font-weight: inherit; font-stretch: inherit; font-size: inherit; line-height: 21px; font-family: inherit; font-optical-sizing: inherit; font-kerning: inherit; font-feature-settings: inherit; font-variation-settings: inherit; margin: -2px -10px -2px -32px; overflow: visible; text-transform: none; appearance: button; cursor: pointer; border-radius: 6px; display: inline-block; padding: 0px; color: var(--color-fg-on-emphasis); text-decoration: none; user-select: none; background-color: var(--color-accent-emphasis); border: 0px; position: relative; z-index: 1; float: left; width: 22px; height: 22px; text-align: center; text-indent: 0px; box-shadow: var(--color-shadow-medium); opacity: 0; transition: transform 0.1s ease-in-out 0s; transform: scale(0.8, 0.8);&quot; class=&quot;add-line-comment js-add-line-comment js-add-single-line-comment btn-link&quot; data-view-component=&quot;true&quot; type=&quot;button&quot; aria-label=&quot;Add line comment&quot; data-original-line=&quot;+    private static double areaDiff(Shape s1, Shape s2) {&quot; data-line=&quot;31&quot; data-side=&quot;right&quot; data-position=&quot;25&quot; data-anchor=&quot;diff-379f90ddc8dc13688fea867883699266f7e3aa4d1fbb3ea4ac97af1c7d1c66b6&quot; data-path=&quot;com/cc/java/App.java&quot;&gt;&lt;svg class=&quot;octicon octicon-plus&quot; data-view-component=&quot;true&quot; width=&quot;16&quot; version=&quot;1.1&quot; viewBox=&quot;0 0 16 16&quot; height=&quot;16&quot; aria-hidden=&quot;true&quot;&gt;&lt;path d=&quot;M7.75 2a.75.75 0 0 1 .75.75V7h4.25a.75.75 0 0 1 0 1.5H8.5v4.25a.75.75 0 0 1-1.5 0V8.5H2.75a.75.75 0 0 1 0-1.5H7V2.75A.75.75 0 0 1 7.75 2Z&quot;&gt;&lt;/path&gt;&lt;/svg&gt;&lt;/button&gt;&lt;span style=&quot;box-sizing: border-box; display: table-cell; overflow: visible; font-family: ui-monospace, SFMono-Regular, &amp;quot;SF Mono&amp;quot;, Menlo, Consolas, &amp;quot;Liberation Mono&amp;quot;, monospace; font-size: 12px; color: var(--color-fg-default); overflow-wrap: anywhere;&quot; data-code-marker=&quot;+&quot; class=&quot;blob-code-inner blob-code-marker js-code-nav-pass&quot;&gt;    &lt;span style=&quot;box-sizing: border-box; color: var(--color-prettylights-syntax-keyword);&quot; class=&quot;pl-k&quot;&gt;private&lt;/span&gt; &lt;span style=&quot;box-sizing: border-box; color: var(--color-prettylights-syntax-keyword);&quot; class=&quot;pl-k&quot;&gt;static&lt;/span&gt; &lt;span style=&quot;box-sizing: border-box; color: var(--color-prettylights-syntax-storage-modifier-import);&quot; class=&quot;pl-smi&quot;&gt;double&lt;/span&gt; &lt;span style=&quot;box-sizing: border-box; color: var(--color-prettylights-syntax-entity);&quot; class=&quot;pl-en&quot;&gt;areaDiff&lt;/span&gt;(&lt;span style=&quot;box-sizing: border-box; color: var(--color-prettylights-syntax-storage-modifier-import);&quot; class=&quot;pl-smi&quot;&gt;Shape&lt;/span&gt; &lt;span style=&quot;box-sizing: border-box;&quot; class=&quot;pl-s1&quot;&gt;s1&lt;/span&gt;, &lt;span style=&quot;box-sizing: border-box; color: var(--color-prettylights-syntax-storage-modifier-import);&quot; class=&quot;pl-smi&quot;&gt;Shape&lt;/span&gt; &lt;span style=&quot;box-sizing: border-box;&quot; class=&quot;pl-s1&quot;&gt;s2&lt;/span&gt;) {&lt;/span&gt;&lt;/td&gt;&lt;/tr&gt;&lt;tr style=&quot;box-sizing: border-box;&quot; class=&quot;show-top-border&quot; data-hunk=&quot;1f829faa3dfd9437d9add38fa4ba800ac3f3bafc46fed3e3f6d62053028f5170&quot;&gt;&lt;td style=&quot;box-sizing: border-box; padding: 0px 10px; position: relative; width: 50px; min-width: 50px; font-family: ui-monospace, SFMono-Regular, &amp;quot;SF Mono&amp;quot;, Menlo, Consolas, &amp;quot;Liberation Mono&amp;quot;, monospace; font-size: 12px; line-height: 20px; color: var(--color-diff-blob-addition-num-text); text-align: right; vertical-align: top; cursor: pointer; user-select: none; background-color: var(--color-diff-blob-addition-num-bg); border-color: var(--color-success-emphasis);&quot; class=&quot;blob-num blob-num-addition empty-cell&quot;&gt;&lt;/td&gt;&lt;td style=&quot;box-sizing: border-box; padding: 0px 10px; position: relative; width: 50px; min-width: 50px; font-family: ui-monospace, SFMono-Regular, &amp;quot;SF Mono&amp;quot;, Menlo, Consolas, &amp;quot;Liberation Mono&amp;quot;, monospace; font-size: 12px; line-height: 20px; color: var(--color-diff-blob-addition-num-text); text-align: right; vertical-align: top; cursor: pointer; user-select: none; background-color: var(--color-diff-blob-addition-num-bg); border-color: var(--color-success-emphasis);&quot; class=&quot;blob-num blob-num-addition js-linkable-line-number js-code-nav-line-number js-blob-rnum&quot; data-line-number=&quot;32&quot; id=&quot;diff-379f90ddc8dc13688fea867883699266f7e3aa4d1fbb3ea4ac97af1c7d1c66b6R32&quot;&gt;&lt;/td&gt;&lt;td style=&quot;box-sizing: border-box; padding: 0px 10px 0px 22px; position: relative; line-height: 20px; vertical-align: top; background-color: var(--color-diff-blob-addition-line-bg); outline: transparent dotted 1px;&quot; class=&quot;blob-code blob-code-addition js-file-line&quot;&gt;&lt;button style=&quot;box-sizing: border-box; font-style: inherit; font-variant: inherit; font-weight: inherit; font-stretch: inherit; font-size: inherit; line-height: 21px; font-family: inherit; font-optical-sizing: inherit; font-kerning: inherit; font-feature-settings: inherit; font-variation-settings: inherit; margin: -2px -10px -2px -32px; overflow: visible; text-transform: none; appearance: button; cursor: pointer; border-radius: 6px; display: inline-block; padding: 0px; color: var(--color-fg-on-emphasis); text-decoration: none; user-select: none; background-color: var(--color-accent-emphasis); border: 0px; position: relative; z-index: 1; float: left; width: 22px; height: 22px; text-align: center; text-indent: 0px; box-shadow: var(--color-shadow-medium); opacity: 0; transition: transform 0.1s ease-in-out 0s; transform: scale(0.8, 0.8);&quot; class=&quot;add-line-comment js-add-line-comment js-add-single-line-comment btn-link&quot; data-view-component=&quot;true&quot; type=&quot;button&quot; aria-label=&quot;Add line comment&quot; data-original-line=&quot;+        return s1.area() - s2.area();&quot; data-line=&quot;32&quot; data-side=&quot;right&quot; data-position=&quot;26&quot; data-anchor=&quot;diff-379f90ddc8dc13688fea867883699266f7e3aa4d1fbb3ea4ac97af1c7d1c66b6&quot; data-path=&quot;com/cc/java/App.java&quot;&gt;&lt;svg class=&quot;octicon octicon-plus&quot; data-view-component=&quot;true&quot; width=&quot;16&quot; version=&quot;1.1&quot; viewBox=&quot;0 0 16 16&quot; height=&quot;16&quot; aria-hidden=&quot;true&quot;&gt;&lt;path d=&quot;M7.75 2a.75.75 0 0 1 .75.75V7h4.25a.75.75 0 0 1 0 1.5H8.5v4.25a.75.75 0 0 1-1.5 0V8.5H2.75a.75.75 0 0 1 0-1.5H7V2.75A.75.75 0 0 1 7.75 2Z&quot;&gt;&lt;/path&gt;&lt;/svg&gt;&lt;/button&gt;&lt;span style=&quot;box-sizing: border-box; display: table-cell; overflow: visible; font-family: ui-monospace, SFMono-Regular, &amp;quot;SF Mono&amp;quot;, Menlo, Consolas, &amp;quot;Liberation Mono&amp;quot;, monospace; font-size: 12px; color: var(--color-fg-default); overflow-wrap: anywhere;&quot; data-code-marker=&quot;+&quot; class=&quot;blob-code-inner blob-code-marker js-code-nav-pass&quot;&gt;        &lt;span style=&quot;box-sizing: border-box; color: var(--color-prettylights-syntax-keyword);&quot; class=&quot;pl-k&quot;&gt;return&lt;/span&gt; &lt;span style=&quot;box-sizing: border-box;&quot; class=&quot;pl-s1&quot;&gt;s1&lt;/span&gt;.&lt;span style=&quot;box-sizing: border-box; color: var(--color-prettylights-syntax-entity);&quot; class=&quot;pl-en&quot;&gt;area&lt;/span&gt;() - &lt;span style=&quot;box-sizing: border-box;&quot; class=&quot;pl-s1&quot;&gt;s2&lt;/span&gt;.&lt;span style=&quot;box-sizing: border-box; color: var(--color-prettylights-syntax-entity);&quot; class=&quot;pl-en&quot;&gt;area&lt;/span&gt;();&lt;/span&gt;&lt;/td&gt;&lt;/tr&gt;&lt;tr style=&quot;box-sizing: border-box;&quot; class=&quot;show-top-border&quot; data-hunk=&quot;1f829faa3dfd9437d9add38fa4ba800ac3f3bafc46fed3e3f6d62053028f5170&quot;&gt;&lt;td style=&quot;box-sizing: border-box; padding: 0px 10px; position: relative; width: 50px; min-width: 50px; font-family: ui-monospace, SFMono-Regular, &amp;quot;SF Mono&amp;quot;, Menlo, Consolas, &amp;quot;Liberation Mono&amp;quot;, monospace; font-size: 12px; line-height: 20px; color: var(--color-fg-subtle); text-align: right; vertical-align: top; cursor: pointer; user-select: none;&quot; class=&quot;blob-num blob-num-context js-linkable-line-number&quot; data-line-number=&quot;34&quot; id=&quot;diff-379f90ddc8dc13688fea867883699266f7e3aa4d1fbb3ea4ac97af1c7d1c66b6L34&quot;&gt;&lt;/td&gt;&lt;td style=&quot;box-sizing: border-box; padding: 0px 10px; position: relative; width: 50px; min-width: 50px; font-family: ui-monospace, SFMono-Regular, &amp;quot;SF Mono&amp;quot;, Menlo, Consolas, &amp;quot;Liberation Mono&amp;quot;, monospace; font-size: 12px; line-height: 20px; color: var(--color-fg-subtle); text-align: right; vertical-align: top; cursor: pointer; user-select: none;&quot; class=&quot;blob-num blob-num-context js-linkable-line-number js-code-nav-line-number js-blob-rnum&quot; data-line-number=&quot;33&quot; id=&quot;diff-379f90ddc8dc13688fea867883699266f7e3aa4d1fbb3ea4ac97af1c7d1c66b6R33&quot;&gt;&lt;/td&gt;&lt;td style=&quot;box-sizing: border-box; padding: 0px 10px 0px 22px; position: relative; line-height: 20px; vertical-align: top;&quot; class=&quot;blob-code blob-code-context js-file-line&quot;&gt;&lt;button style=&quot;box-sizing: border-box; font-style: inherit; font-variant: inherit; font-weight: inherit; font-stretch: inherit; font-size: inherit; line-height: 21px; font-family: inherit; font-optical-sizing: inherit; font-kerning: inherit; font-feature-settings: inherit; font-variation-settings: inherit; margin: -2px -10px -2px -32px; overflow: visible; text-transform: none; appearance: button; cursor: pointer; border-radius: 6px; display: inline-block; padding: 0px; color: var(--color-fg-on-emphasis); text-decoration: none; user-select: none; background-color: var(--color-accent-emphasis); border: 0px; position: relative; z-index: 1; float: left; width: 22px; height: 22px; text-align: center; text-indent: 0px; box-shadow: var(--color-shadow-medium); opacity: 0; transition: transform 0.1s ease-in-out 0s; transform: scale(0.8, 0.8);&quot; class=&quot;add-line-comment js-add-line-comment js-add-single-line-comment btn-link&quot; data-view-component=&quot;true&quot; type=&quot;button&quot; aria-label=&quot;Add line comment&quot; data-original-line=&quot;}&quot; data-line=&quot;33&quot; data-side=&quot;right&quot; data-position=&quot;27&quot; data-anchor=&quot;diff-379f90ddc8dc13688fea867883699266f7e3aa4d1fbb3ea4ac97af1c7d1c66b6&quot; data-path=&quot;com/cc/java/App.java&quot;&gt;&lt;svg class=&quot;octicon octicon-plus&quot; data-view-component=&quot;true&quot; width=&quot;16&quot; version=&quot;1.1&quot; viewBox=&quot;0 0 16 16&quot; height=&quot;16&quot; aria-hidden=&quot;true&quot;&gt;&lt;path d=&quot;M7.75 2a.75.75 0 0 1 .75.75V7h4.25a.75.75 0 0 1 0 1.5H8.5v4.25a.75.75 0 0 1-1.5 0V8.5H2.75a.75.75 0 0 1 0-1.5H7V2.75A.75.75 0 0 1 7.75 2Z&quot;&gt;&lt;/path&gt;&lt;/svg&gt;&lt;/button&gt;&lt;span style=&quot;box-sizing: border-box; display: table-cell; overflow: visible; font-family: ui-monospace, SFMono-Regular, &amp;quot;SF Mono&amp;quot;, Menlo, Consolas, &amp;quot;Liberation Mono&amp;quot;, monospace; font-size: 12px; color: var(--color-fg-default); overflow-wrap: anywhere;&quot; data-code-marker=&quot;&quot; class=&quot;blob-code-inner blob-code-marker js-code-nav-pass&quot;&gt;    }&lt;/span&gt;&lt;/td&gt;&lt;/tr&gt;&lt;tr style=&quot;box-sizing: border-box;&quot; class=&quot;show-top-border&quot; data-hunk=&quot;1f829faa3dfd9437d9add38fa4ba800ac3f3bafc46fed3e3f6d62053028f5170&quot;&gt;&lt;td style=&quot;box-sizing: border-box; padding: 0px 10px; position: relative; width: 50px; min-width: 50px; font-family: ui-monospace, SFMono-Regular, &amp;quot;SF Mono&amp;quot;, Menlo, Consolas, &amp;quot;Liberation Mono&amp;quot;, monospace; font-size: 12px; line-height: 20px; color: var(--color-fg-subtle); text-align: right; vertical-align: top; cursor: pointer; user-select: none;&quot; class=&quot;blob-num blob-num-context js-linkable-line-number&quot; data-line-number=&quot;35&quot; id=&quot;diff-379f90ddc8dc13688fea867883699266f7e3aa4d1fbb3ea4ac97af1c7d1c66b6L35&quot;&gt;&lt;/td&gt;&lt;td style=&quot;box-sizing: border-box; padding: 0px 10px; position: relative; width: 50px; min-width: 50px; font-family: ui-monospace, SFMono-Regular, &amp;quot;SF Mono&amp;quot;, Menlo, Consolas, &amp;quot;Liberation Mono&amp;quot;, monospace; font-size: 12px; line-height: 20px; color: var(--color-fg-subtle); text-align: right; vertical-align: top; cursor: pointer; user-select: none;&quot; class=&quot;blob-num blob-num-context js-linkable-line-number js-code-nav-line-number js-blob-rnum&quot; data-line-number=&quot;34&quot; id=&quot;diff-379f90ddc8dc13688fea867883699266f7e3aa4d1fbb3ea4ac97af1c7d1c66b6R34&quot;&gt;&lt;/td&gt;&lt;td style=&quot;box-sizing: border-box; padding: 0px 10px 0px 22px; position: relative; line-height: 20px; vertical-align: top;&quot; class=&quot;blob-code blob-code-context js-file-line&quot;&gt;&lt;button style=&quot;box-sizing: border-box; font-style: inherit; font-variant: inherit; font-weight: inherit; font-stretch: inherit; font-size: inherit; line-height: 21px; font-family: inherit; font-optical-sizing: inherit; font-kerning: inherit; font-feature-settings: inherit; font-variation-settings: inherit; margin: -2px -10px -2px -32px; overflow: visible; text-transform: none; appearance: button; cursor: pointer; border-radius: 6px; display: inline-block; padding: 0px; color: var(--color-fg-on-emphasis); text-decoration: none; user-select: none; background-color: var(--color-accent-emphasis); border: 0px; position: relative; z-index: 1; float: left; width: 22px; height: 22px; text-align: center; text-indent: 0px; box-shadow: var(--color-shadow-medium); opacity: 0; transition: transform 0.1s ease-in-out 0s; transform: scale(0.8, 0.8);&quot; class=&quot;add-line-comment js-add-line-comment js-add-single-line-comment btn-link&quot; data-view-component=&quot;true&quot; type=&quot;button&quot; aria-label=&quot;Add line comment&quot; data-original-line=&quot;&quot; data-line=&quot;34&quot; data-side=&quot;right&quot; data-position=&quot;28&quot; data-anchor=&quot;diff-379f90ddc8dc13688fea867883699266f7e3aa4d1fbb3ea4ac97af1c7d1c66b6&quot; data-path=&quot;com/cc/java/App.java&quot;&gt;&lt;svg class=&quot;octicon octicon-plus&quot; data-view-component=&quot;true&quot; width=&quot;16&quot; version=&quot;1.1&quot; viewBox=&quot;0 0 16 16&quot; height=&quot;16&quot; aria-hidden=&quot;true&quot;&gt;&lt;path d=&quot;M7.75 2a.75.75 0 0 1 .75.75V7h4.25a.75.75 0 0 1 0 1.5H8.5v4.25a.75.75 0 0 1-1.5 0V8.5H2.75a.75.75 0 0 1 0-1.5H7V2.75A.75.75 0 0 1 7.75 2Z&quot;&gt;&lt;/path&gt;&lt;/svg&gt;&lt;/button&gt;&lt;span style=&quot;box-sizing: border-box; display: table-cell; overflow: visible; font-family: ui-monospace, SFMono-Regular, &amp;quot;SF Mono&amp;quot;, Menlo, Consolas, &amp;quot;Liberation Mono&amp;quot;, monospace; font-size: 12px; color: var(--color-fg-default); overflow-wrap: anywhere;&quot; data-code-marker=&quot;&quot; class=&quot;blob-code-inner blob-code-marker js-code-nav-pass&quot;&gt;&lt;br style=&quot;box-sizing: border-box;&quot;&gt;&lt;/span&gt;&lt;/td&gt;&lt;/tr&gt;&lt;/tbody&gt;&lt;/table&gt;" style="text;whiteSpace=wrap;html=1;" vertex="1" parent="1">
                    <mxGeometry x="10" y="10" width="560" height="800" as="geometry"/>
                </mxCell>
            </root>
        </mxGraphModel>
    </diagram>
    <diagram name="Shapes II" id="8aYwglULXiXYkxvqXHIb">
        <mxGraphModel dx="638" dy="787" grid="1" gridSize="10" guides="1" tooltips="1" connect="1" arrows="1" fold="1" page="1" pageScale="1" pageWidth="827" pageHeight="1169" math="0" shadow="0">
            <root>
                <mxCell id="mH_aL-SBo71EeqskqtmZ-0"/>
                <mxCell id="mH_aL-SBo71EeqskqtmZ-1" parent="mH_aL-SBo71EeqskqtmZ-0"/>
                <mxCell id="mH_aL-SBo71EeqskqtmZ-2" value="Shape" style="swimlane;fontStyle=3;align=center;verticalAlign=top;childLayout=stackLayout;horizontal=1;startSize=26;horizontalStack=0;resizeParent=1;resizeParentMax=0;resizeLast=0;collapsible=1;marginBottom=0;" parent="mH_aL-SBo71EeqskqtmZ-1" vertex="1">
                    <mxGeometry x="240" y="40" width="160" height="70" as="geometry"/>
                </mxCell>
                <mxCell id="mH_aL-SBo71EeqskqtmZ-3" value="" style="line;strokeWidth=1;fillColor=none;align=left;verticalAlign=middle;spacingTop=-1;spacingLeft=3;spacingRight=3;rotatable=0;labelPosition=right;points=[];portConstraint=eastwest;" parent="mH_aL-SBo71EeqskqtmZ-2" vertex="1">
                    <mxGeometry y="26" width="160" height="8" as="geometry"/>
                </mxCell>
                <mxCell id="mH_aL-SBo71EeqskqtmZ-4" value="+ area(): double" style="text;strokeColor=none;fillColor=none;align=left;verticalAlign=top;spacingLeft=4;spacingRight=4;overflow=hidden;rotatable=0;points=[[0,0.5],[1,0.5]];portConstraint=eastwest;" parent="mH_aL-SBo71EeqskqtmZ-2" vertex="1">
                    <mxGeometry y="34" width="160" height="36" as="geometry"/>
                </mxCell>
                <mxCell id="mH_aL-SBo71EeqskqtmZ-14" value="Extends" style="endArrow=block;endSize=16;endFill=0;html=1;exitX=0.5;exitY=0;exitDx=0;exitDy=0;entryX=0.237;entryY=1.009;entryDx=0;entryDy=0;entryPerimeter=0;" parent="mH_aL-SBo71EeqskqtmZ-1" target="mH_aL-SBo71EeqskqtmZ-4" edge="1">
                    <mxGeometry width="160" relative="1" as="geometry">
                        <mxPoint x="120" y="240" as="sourcePoint"/>
                        <mxPoint x="290" y="110" as="targetPoint"/>
                    </mxGeometry>
                </mxCell>
                <mxCell id="mH_aL-SBo71EeqskqtmZ-15" value="Extends" style="endArrow=block;endSize=16;endFill=0;html=1;exitX=0.5;exitY=0;exitDx=0;exitDy=0;" parent="mH_aL-SBo71EeqskqtmZ-1" edge="1">
                    <mxGeometry width="160" relative="1" as="geometry">
                        <mxPoint x="320" y="240" as="sourcePoint"/>
                        <mxPoint x="321" y="110" as="targetPoint"/>
                    </mxGeometry>
                </mxCell>
                <mxCell id="mH_aL-SBo71EeqskqtmZ-16" value="Extends" style="endArrow=block;endSize=16;endFill=0;html=1;exitX=0.5;exitY=0;exitDx=0;exitDy=0;entryX=0.755;entryY=1.009;entryDx=0;entryDy=0;entryPerimeter=0;" parent="mH_aL-SBo71EeqskqtmZ-1" target="mH_aL-SBo71EeqskqtmZ-4" edge="1">
                    <mxGeometry width="160" relative="1" as="geometry">
                        <mxPoint x="520" y="240" as="sourcePoint"/>
                        <mxPoint x="320" y="113" as="targetPoint"/>
                    </mxGeometry>
                </mxCell>
                <mxCell id="mH_aL-SBo71EeqskqtmZ-18" value="Rectangle" style="swimlane;fontStyle=1;align=center;verticalAlign=top;childLayout=stackLayout;horizontal=1;startSize=26;horizontalStack=0;resizeParent=1;resizeParentMax=0;resizeLast=0;collapsible=1;marginBottom=0;" parent="mH_aL-SBo71EeqskqtmZ-1" vertex="1">
                    <mxGeometry x="40" y="240" width="160" height="138" as="geometry"/>
                </mxCell>
                <mxCell id="mH_aL-SBo71EeqskqtmZ-19" value="- height: double" style="text;strokeColor=none;fillColor=none;align=left;verticalAlign=top;spacingLeft=4;spacingRight=4;overflow=hidden;rotatable=0;points=[[0,0.5],[1,0.5]];portConstraint=eastwest;" parent="mH_aL-SBo71EeqskqtmZ-18" vertex="1">
                    <mxGeometry y="26" width="160" height="26" as="geometry"/>
                </mxCell>
                <mxCell id="mH_aL-SBo71EeqskqtmZ-22" value="- width: double" style="text;strokeColor=none;fillColor=none;align=left;verticalAlign=top;spacingLeft=4;spacingRight=4;overflow=hidden;rotatable=0;points=[[0,0.5],[1,0.5]];portConstraint=eastwest;" parent="mH_aL-SBo71EeqskqtmZ-18" vertex="1">
                    <mxGeometry y="52" width="160" height="26" as="geometry"/>
                </mxCell>
                <mxCell id="mH_aL-SBo71EeqskqtmZ-20" value="" style="line;strokeWidth=1;fillColor=none;align=left;verticalAlign=middle;spacingTop=-1;spacingLeft=3;spacingRight=3;rotatable=0;labelPosition=right;points=[];portConstraint=eastwest;" parent="mH_aL-SBo71EeqskqtmZ-18" vertex="1">
                    <mxGeometry y="78" width="160" height="8" as="geometry"/>
                </mxCell>
                <mxCell id="mH_aL-SBo71EeqskqtmZ-21" value="+ Rectangle(double, double)" style="text;strokeColor=none;fillColor=none;align=left;verticalAlign=top;spacingLeft=4;spacingRight=4;overflow=hidden;rotatable=0;points=[[0,0.5],[1,0.5]];portConstraint=eastwest;" parent="mH_aL-SBo71EeqskqtmZ-18" vertex="1">
                    <mxGeometry y="86" width="160" height="26" as="geometry"/>
                </mxCell>
                <mxCell id="mH_aL-SBo71EeqskqtmZ-23" value="+ area(): double" style="text;strokeColor=none;fillColor=none;align=left;verticalAlign=top;spacingLeft=4;spacingRight=4;overflow=hidden;rotatable=0;points=[[0,0.5],[1,0.5]];portConstraint=eastwest;" parent="mH_aL-SBo71EeqskqtmZ-18" vertex="1">
                    <mxGeometry y="112" width="160" height="26" as="geometry"/>
                </mxCell>
                <mxCell id="mH_aL-SBo71EeqskqtmZ-24" value="Circle" style="swimlane;fontStyle=1;align=center;verticalAlign=top;childLayout=stackLayout;horizontal=1;startSize=26;horizontalStack=0;resizeParent=1;resizeParentMax=0;resizeLast=0;collapsible=1;marginBottom=0;" parent="mH_aL-SBo71EeqskqtmZ-1" vertex="1">
                    <mxGeometry x="240" y="240" width="160" height="112" as="geometry"/>
                </mxCell>
                <mxCell id="mH_aL-SBo71EeqskqtmZ-25" value="- radius: double" style="text;strokeColor=none;fillColor=none;align=left;verticalAlign=top;spacingLeft=4;spacingRight=4;overflow=hidden;rotatable=0;points=[[0,0.5],[1,0.5]];portConstraint=eastwest;" parent="mH_aL-SBo71EeqskqtmZ-24" vertex="1">
                    <mxGeometry y="26" width="160" height="26" as="geometry"/>
                </mxCell>
                <mxCell id="mH_aL-SBo71EeqskqtmZ-27" value="" style="line;strokeWidth=1;fillColor=none;align=left;verticalAlign=middle;spacingTop=-1;spacingLeft=3;spacingRight=3;rotatable=0;labelPosition=right;points=[];portConstraint=eastwest;" parent="mH_aL-SBo71EeqskqtmZ-24" vertex="1">
                    <mxGeometry y="52" width="160" height="8" as="geometry"/>
                </mxCell>
                <mxCell id="mH_aL-SBo71EeqskqtmZ-28" value="+Â Circle(double)" style="text;strokeColor=none;fillColor=none;align=left;verticalAlign=top;spacingLeft=4;spacingRight=4;overflow=hidden;rotatable=0;points=[[0,0.5],[1,0.5]];portConstraint=eastwest;" parent="mH_aL-SBo71EeqskqtmZ-24" vertex="1">
                    <mxGeometry y="60" width="160" height="26" as="geometry"/>
                </mxCell>
                <mxCell id="mH_aL-SBo71EeqskqtmZ-29" value="+ area(): double" style="text;strokeColor=none;fillColor=none;align=left;verticalAlign=top;spacingLeft=4;spacingRight=4;overflow=hidden;rotatable=0;points=[[0,0.5],[1,0.5]];portConstraint=eastwest;" parent="mH_aL-SBo71EeqskqtmZ-24" vertex="1">
                    <mxGeometry y="86" width="160" height="26" as="geometry"/>
                </mxCell>
                <mxCell id="mH_aL-SBo71EeqskqtmZ-30" value="Triangle" style="swimlane;fontStyle=1;align=center;verticalAlign=top;childLayout=stackLayout;horizontal=1;startSize=26;horizontalStack=0;resizeParent=1;resizeParentMax=0;resizeLast=0;collapsible=1;marginBottom=0;" parent="mH_aL-SBo71EeqskqtmZ-1" vertex="1">
                    <mxGeometry x="440" y="240" width="160" height="138" as="geometry"/>
                </mxCell>
                <mxCell id="mH_aL-SBo71EeqskqtmZ-31" value="- baseline: double" style="text;strokeColor=none;fillColor=none;align=left;verticalAlign=top;spacingLeft=4;spacingRight=4;overflow=hidden;rotatable=0;points=[[0,0.5],[1,0.5]];portConstraint=eastwest;" parent="mH_aL-SBo71EeqskqtmZ-30" vertex="1">
                    <mxGeometry y="26" width="160" height="26" as="geometry"/>
                </mxCell>
                <mxCell id="mH_aL-SBo71EeqskqtmZ-32" value="- height: double" style="text;strokeColor=none;fillColor=none;align=left;verticalAlign=top;spacingLeft=4;spacingRight=4;overflow=hidden;rotatable=0;points=[[0,0.5],[1,0.5]];portConstraint=eastwest;" parent="mH_aL-SBo71EeqskqtmZ-30" vertex="1">
                    <mxGeometry y="52" width="160" height="26" as="geometry"/>
                </mxCell>
                <mxCell id="mH_aL-SBo71EeqskqtmZ-33" value="" style="line;strokeWidth=1;fillColor=none;align=left;verticalAlign=middle;spacingTop=-1;spacingLeft=3;spacingRight=3;rotatable=0;labelPosition=right;points=[];portConstraint=eastwest;" parent="mH_aL-SBo71EeqskqtmZ-30" vertex="1">
                    <mxGeometry y="78" width="160" height="8" as="geometry"/>
                </mxCell>
                <mxCell id="mH_aL-SBo71EeqskqtmZ-34" value="+Â Triangle(double, double)" style="text;strokeColor=none;fillColor=none;align=left;verticalAlign=top;spacingLeft=4;spacingRight=4;overflow=hidden;rotatable=0;points=[[0,0.5],[1,0.5]];portConstraint=eastwest;" parent="mH_aL-SBo71EeqskqtmZ-30" vertex="1">
                    <mxGeometry y="86" width="160" height="26" as="geometry"/>
                </mxCell>
                <mxCell id="mH_aL-SBo71EeqskqtmZ-35" value="+ area(): double" style="text;strokeColor=none;fillColor=none;align=left;verticalAlign=top;spacingLeft=4;spacingRight=4;overflow=hidden;rotatable=0;points=[[0,0.5],[1,0.5]];portConstraint=eastwest;" parent="mH_aL-SBo71EeqskqtmZ-30" vertex="1">
                    <mxGeometry y="112" width="160" height="26" as="geometry"/>
                </mxCell>
            </root>
        </mxGraphModel>
    </diagram>
</mxfile>